<?xml version="1.0" standalone="no"?>
<!DOCTYPE svg PUBLIC "-//W3C//DTD SVG 1.1//EN" "http://www.w3.org/Graphics/SVG/1.1/DTD/svg11.dtd" >
<svg xmlns="http://www.w3.org/2000/svg">
<metadata>Generated by IcoMoon</metadata>
<defs>
<font id="icomoon" horiz-adv-x="1024">
<font-face units-per-em="1024" ascent="960" descent="-64" />
<missing-glyph horiz-adv-x="1024" />
<glyph unicode="&#x20;" horiz-adv-x="512" d="" />
<glyph unicode="&#xe900;" glyph-name="angleDown" d="M151.452 600.761c12.497 12.497 32.758 12.497 45.255 0l278.186-278.188c20.356-20.356 53.854-20.356 74.214 0l278.187 278.188c12.493 12.497 32.755 12.497 45.252 0s12.497-32.758 0-45.255l-278.187-278.185c-45.35-45.35-119.369-45.35-164.719 0l-278.188 278.185c-12.497 12.497-12.497 32.758 0 45.255z" />
<glyph unicode="&#xe901;" glyph-name="angleLeft" d="M662.626 808.547c12.497-12.497 12.497-32.758 0-45.255l-278.185-278.185c-20.357-20.356-20.357-53.858 0-74.214l278.185-278.187c12.497-12.497 12.497-32.755 0-45.252s-32.755-12.497-45.252 0l-278.188 278.187c-45.35 45.35-45.35 119.369 0 164.719l278.188 278.188c12.497 12.497 32.755 12.497 45.252 0z" />
<glyph unicode="&#xe902;" glyph-name="angleRight" d="M357.533 808.547c12.497 12.497 32.758 12.497 45.255 0l278.185-278.188c45.35-45.35 45.35-119.369 0-164.719l-278.185-278.187c-12.497-12.497-32.758-12.497-45.255 0s-12.497 32.755 0 45.252l278.188 278.187c20.356 20.356 20.356 53.858 0 74.214l-278.188 278.185c-12.497 12.497-12.497 32.758 0 45.255z" />
<glyph unicode="&#xe903;" glyph-name="angleUp" d="M429.641 618.681c45.35 45.35 119.369 45.35 164.719 0l278.187-278.188c12.497-12.497 12.497-32.755 0-45.252s-32.759-12.497-45.252 0l-278.187 278.185c-20.361 20.357-53.858 20.357-74.214 0l-278.186-278.185c-12.497-12.497-32.758-12.497-45.255 0s-12.497 32.755 0 45.252l278.188 278.188z" />
<glyph unicode="&#xe904;" glyph-name="arrowBottomLeft" d="M791.070 681.816c12.497 12.497 12.497 32.758 0 45.255s-32.755 12.497-45.252 0l-458.262-458.258v289.006c0 17.673-14.327 32-32 32s-32-14.327-32-32v-366.262c0-8.486 3.372-16.627 9.373-22.626 6.001-6.003 14.141-9.374 22.627-9.374h366.264c17.673 0 32 14.327 32 32s-14.327 32-32 32h-289.009l458.259 458.26z" />
<glyph unicode="&#xe905;" glyph-name="arrowBottomRight" d="M736.444 268.813v289.006c0 17.673 14.327 32 32 32s32-14.327 32-32v-366.262c0-8.486-3.371-16.627-9.374-22.626-5.999-6.003-14.14-9.374-22.626-9.374h-366.263c-17.673 0-32 14.327-32 32s14.327 32 32 32h289.007l-458.259 458.26c-12.497 12.497-12.497 32.758 0 45.255s32.758 12.497 45.255 0l458.261-458.258z" />
<glyph unicode="&#xe906;" glyph-name="arrowDown" d="M544 810.667c0 17.673-14.327 32-32 32s-32-14.327-32-32v-648.077l-204.359 204.356c-12.497 12.497-32.758 12.497-45.255 0s-12.497-32.755 0-45.252l258.988-258.987c5.999-6.003 14.14-9.374 22.626-9.374s16.627 3.371 22.626 9.374l258.987 258.987c12.497 12.497 12.497 32.755 0 45.252s-32.755 12.497-45.252 0l-204.361-204.356v648.077z" />
<glyph unicode="&#xe907;" glyph-name="arrowLeft" d="M430.946 729.614c12.497-12.497 12.497-32.758 0-45.255l-236.358-236.359 236.358-236.361c12.497-12.497 12.497-32.755 0-45.252-12.495-12.497-32.757-12.497-45.254 0l-258.987 258.987c-6.001 5.999-9.373 14.14-9.373 22.626s3.372 16.627 9.373 22.626l258.987 258.988c12.497 12.497 32.758 12.497 45.254 0zM124.587 448c0 17.673 14.327 32 32 32h718.080c17.673 0 32-14.327 32-32s-14.327-32-32-32h-718.080c-17.673 0-32 14.327-32 32z" />
<glyph unicode="&#xe908;" glyph-name="arrowRight" d="M593.054 729.614c12.497 12.497 32.755 12.497 45.252 0l258.987-258.988c6.003-5.999 9.374-14.14 9.374-22.626s-3.371-16.627-9.374-22.626l-258.987-258.987c-12.497-12.497-32.755-12.497-45.252 0s-12.497 32.755 0 45.252l236.356 236.361-236.356 236.359c-12.497 12.497-12.497 32.758 0 45.255zM117.333 448c0 17.673 14.327 32 32 32h718.080c17.673 0 32-14.327 32-32s-14.327-32-32-32h-718.080c-17.673 0-32 14.327-32 32z" />
<glyph unicode="&#xe909;" glyph-name="arrowTopLeft" d="M621.82 672.445c17.673 0 32 14.327 32 32s-14.327 32-32 32h-366.264c-8.487 0-16.626-3.372-22.627-9.373s-9.373-14.141-9.373-22.627v-366.264c0-17.673 14.327-32 32-32s32 14.327 32 32v289.008l458.262-458.258c12.497-12.497 32.755-12.497 45.252 0s12.497 32.755 0 45.252l-458.26 458.262h289.010z" />
<glyph unicode="&#xe90a;" glyph-name="arrowTopRight" d="M402.182 736.444c-17.673 0-32-14.327-32-32s14.327-32 32-32h289.010l-458.263-458.262c-12.497-12.497-12.497-32.755 0-45.252s32.758-12.497 45.255 0l458.26 458.259v-289.009c0-17.673 14.327-32 32-32s32 14.327 32 32v366.264c0 8.487-3.371 16.626-9.374 22.627-5.999 6.001-14.14 9.373-22.626 9.373h-366.262z" />
<glyph unicode="&#xe90b;" glyph-name="arrowUp" d="M534.626 833.294c-5.999 6.001-14.14 9.373-22.626 9.373s-16.627-3.372-22.626-9.373l-258.988-258.987c-12.497-12.497-12.497-32.758 0-45.254s32.758-12.497 45.255 0l204.359 204.358v-648.079c0-17.673 14.327-32 32-32s32 14.327 32 32v648.079l204.361-204.358c12.497-12.497 32.755-12.497 45.252 0 12.497 12.495 12.497 32.757 0 45.254l-258.987 258.987z" />
<glyph unicode="&#xe90c;" glyph-name="bar" d="M170.667 544c0 17.673 12.735 32 28.445 32h625.776c15.71 0 28.446-14.327 28.446-32s-12.736-32-28.446-32h-625.776c-15.709 0-28.445 14.327-28.445 32zM170.667 373.333c0 17.673 12.536 32 28 32h541.335c15.462 0 27.998-14.327 27.998-32s-12.535-32-27.998-32h-541.335c-15.464 0-28 14.327-28 32z" />
<glyph unicode="&#xe90d;" glyph-name="bars" d="M160 736c-17.673 0-32-14.327-32-32s14.327-32 32-32h704c17.673 0 32 14.327 32 32s-14.327 32-32 32h-704zM160 224c-17.673 0-32-14.327-32-32s14.327-32 32-32h704c17.673 0 32 14.327 32 32s-14.327 32-32 32h-704zM160 480c-17.673 0-32-14.327-32-32s14.327-32 32-32h618.667c17.673 0 32 14.327 32 32s-14.327 32-32 32h-618.667z" />
<glyph unicode="&#xe90e;" glyph-name="blog" d="M896 736h-298.667c-17.493 0-32 14.507-32 32s14.507 32 32 32h298.667c17.493 0 32-14.507 32-32s-14.507-32-32-32zM896 522.667h-298.667c-17.493 0-32 14.507-32 32s14.507 32 32 32h298.667c17.493 0 32-14.507 32-32s-14.507-32-32-32zM896 309.333h-768c-17.493 0-32 14.507-32 32s14.507 32 32 32h768c17.493 0 32-14.507 32-32s-14.507-32-32-32zM896 96h-768c-17.493 0-32 14.507-32 32s14.507 32 32 32h768c17.493 0 32-14.507 32-32s-14.507-32-32-32zM337.92 810.667h-121.173c-59.733 0-88.747-29.013-88.747-88.747v-121.6c0-59.733 29.013-88.747 88.747-88.747h121.6c59.733 0 88.747 29.013 88.747 88.747v121.6c-0.427 59.733-29.44 88.747-89.173 88.747z" />
<glyph unicode="&#xe90f;" glyph-name="book" d="M202.667 597.76c0 17.673 14.327 32 32 32h96c17.673 0 32-14.327 32-32s-14.327-32-32-32h-96c-17.673 0-32 14.327-32 32zM234.667 501.76c-17.673 0-32-14.327-32-32s14.327-32 32-32h128c17.673 0 32 14.327 32 32s-14.327 32-32 32h-128zM180.124 877.972c-69.546 5.817-126.791-47.442-126.791-116.798v-515.413c0-56.777 44.936-108.949 102.054-116.207l12.32-1.698c88.674-11.849 227.841-57.545 306.323-100.463l0.486-0.26 0.559-0.286 1.195-0.597c11.413-6.144 24.23-8.435 35.465-8.435 11.302 0 24.427 2.325 35.994 8.9 78.43 43.247 217.673 89.242 306.654 101.116l14.012 1.698c57.22 7.151 102.272 59.383 102.272 116.233v514.987c0 69.623-57.207 121.888-125.833 116.907h-1.314c-0.913 0-1.822-0.039-2.735-0.117-94.677-8.116-235.695-55.411-315.964-105.917l-7.083-4.584c-0.137-0.064-0.585-0.26-1.408-0.465-1.161-0.29-2.662-0.491-4.331-0.491s-3.17 0.201-4.331 0.491c-0.866 0.216-1.318 0.423-1.429 0.474l-10.825 6.496c-80.258 49.967-220.631 96.755-315.291 104.43zM117.333 761.173c0 32.174 25.501 55.706 57.481 53.019l0.097-0.008c84.446-6.836 215.211-50.413 286.874-95.101l10.965-6.581c2.355-1.446 4.779-2.719 7.249-3.832v-612.375c-86.874 42.389-216.028 83.251-303.746 94.989l-0.069 0.009-12.643 1.741c-24.699 3.089-46.209 27.657-46.209 52.727v515.413zM544 96.811v611.854c2.556 1.152 5.060 2.474 7.492 3.983l7.582 4.907c71.287 44.795 201.353 88.517 285.845 96.099h1.161c0.896 0 1.788 0.038 2.679 0.112 32.286 2.713 57.907-20.727 57.907-53.019v-514.987c0-25.054-21.483-49.609-46.161-52.719l-14.379-1.745c-87.258-11.61-215.164-52.134-302.127-94.485z" />
<glyph unicode="&#xe910;" glyph-name="bookmark" d="M132.039 827.961c56.937 56.937 142.138 78.706 251.961 78.706h256c109.824 0 195.025-21.769 251.959-78.706 56.939-56.937 78.707-142.138 78.707-251.961v-256c0-109.824-21.769-195.025-78.707-251.959-56.934-56.939-142.135-78.707-251.959-78.707h-256c-109.823 0-195.023 21.769-251.961 78.707-56.937 56.934-78.706 142.135-78.706 251.959v256c0 109.823 21.769 195.023 78.706 251.961zM177.294 782.706c-39.063-39.063-59.961-103.195-59.961-206.706v-256c0-103.509 20.898-167.642 59.961-206.707 39.063-39.061 103.195-59.959 206.706-59.959h256c103.509 0 167.642 20.898 206.707 59.959 39.061 39.066 59.959 103.198 59.959 206.707v256c0 103.511-20.898 167.643-59.959 206.706-39.066 39.063-103.198 59.961-206.707 59.961h-256c-103.511 0-167.643-20.898-206.706-59.961zM298.667 887.893c17.673 0 32-14.327 32-32v-425.813c0-35.11 12.251-50.564 22.526-56.119 10.679-5.773 31.613-7.646 63.057 11.068-0.007 0 0.007 0.004 0 0l56.246 33.664c0 0 0.004 0.004 0 0 12.45 7.471 26.79 10.321 39.505 10.321s27.046-2.85 39.497-10.317c0 0 0.004 0 0 0l56.35-33.724c31.415-18.884 52.284-16.964 62.912-11.196 10.304 5.594 22.575 21.171 22.575 56.303v425.813c0 17.673 14.327 32 32 32s32-14.327 32-32v-425.813c0-48.922-17.809-91.797-56.038-112.55-37.901-20.574-84.002-12.902-126.396 12.578-0.009 0.004 0.009-0.009 0 0l-56.294 33.69c0.009-0.004-0.175 0.102-0.521 0.243-0.346 0.137-0.832 0.299-1.455 0.452-1.284 0.311-2.88 0.521-4.629 0.521s-3.345-0.209-4.629-0.521c-0.623-0.154-1.109-0.316-1.455-0.452-0.346-0.141-0.499-0.23-0.491-0.226l-56.414-33.762c-42.359-25.22-88.406-32.853-126.257-12.386-38.259 20.685-56.087 63.471-56.087 112.414v425.813c0 17.673 14.327 32 32 32z" />
<glyph unicode="&#xe911;" glyph-name="books" d="M682.667 629.333h-341.333c-17.493 0-32 14.507-32 32s14.507 32 32 32h341.333c17.493 0 32-14.507 32-32s-14.507-32-32-32zM341.333 480h213.333c17.493 0 32 14.507 32 32s-14.507 32-32 32h-213.333c-17.493 0-32-14.507-32-32s14.507-32 32-32zM906.667 170.667c0-99.84-81.493-181.333-181.333-181.333h-426.667c-99.84 0-181.333 81.493-181.333 181.333v490.667c0 188.16 57.173 245.333 245.333 245.333h298.667c188.16 0 245.333-57.173 245.333-245.333v-490.667zM181.333 170.667c0-64.853 52.48-117.333 117.333-117.333h426.667c64.853 0 117.333 52.48 117.333 117.333v40.35c-0.469 2.539-0.623 5.175-0.427 7.863 0.427 5.12 0.427 10.667 0.427 15.787v53.333h-571.733c-49.493 0-89.6-40.107-89.6-89.6v-27.733zM181.333 323.085c25.262 18.197 56.233 28.915 89.6 28.915h571.733v309.333c0 152.32-28.587 181.333-181.333 181.333h-298.667c-152.747 0-181.333-29.013-181.333-181.333v-338.249z" />
<glyph unicode="&#xe912;" glyph-name="calender" d="M320 912c17.673 0 32-14.327 32-32v-48h320v48c0 17.673 14.327 32 32 32s32-14.327 32-32v-48h96c35.345 0 64-28.654 64-64v-640c0-35.345-28.655-64-64-64h-640c-35.346 0-64 28.655-64 64v640c0 35.346 28.654 64 64 64h96v48c0 17.673 14.327 32 32 32zM192 768v-128h640v128h-640zM832 576h-640v-448h640v448zM670.31 476.621c10.842-5.419 17.69-16.499 17.69-28.621v-208c0-17.673-14.327-32-32-32s-32 14.327-32 32v144l-12.8-9.6c-14.14-10.603-34.197-7.74-44.8 6.4s-7.74 34.197 6.4 44.8l64 48c9.698 7.27 22.669 8.444 33.51 3.021zM320 448c0 17.673 14.327 32 32 32h112c12.301 0 23.514-7.053 28.843-18.138 5.329-11.089 3.831-24.247-3.853-33.852l-35.422-44.275c10.377-6.955 19.324-15.889 26.308-26.321 8.794-13.129 14.208-28.224 15.765-43.947s-0.789-31.586-6.831-46.182c-6.042-14.601-15.595-27.482-27.806-37.5-12.215-10.022-26.714-16.875-42.212-19.951-15.497-3.072-31.513-2.274-46.628 2.321-15.115 4.599-28.861 12.86-40.020 24.043-12.481 12.514-12.457 32.777 0.055 45.257s32.773 12.459 45.255-0.055c3.719-3.729 8.301-6.481 13.34-8.013s10.377-1.801 15.543-0.777c5.166 1.028 9.999 3.311 14.070 6.652s7.253 7.633 9.267 12.501c2.018 4.864 2.799 10.15 2.278 15.394-0.521 5.239-2.325 10.27-5.252 14.647-2.932 4.378-6.897 7.962-11.545 10.436-4.648 2.479-9.835 3.767-15.101 3.759-12.311-0.021-23.542 7.023-28.884 18.112-5.342 11.093-3.849 24.265 3.842 33.877l22.408 28.011h-45.42c-17.673 0-32 14.327-32 32z" />
<glyph unicode="&#xe913;" glyph-name="call" d="M744.533-10.667c-48.213 0-98.987 11.52-151.467 33.707-51.2 21.76-102.827 51.627-153.173 87.893-49.92 36.693-98.133 77.653-143.787 122.453-45.227 45.653-86.187 93.867-122.453 143.36-36.693 51.2-66.133 102.4-87.040 151.893-22.187 52.907-33.28 104.107-33.28 152.32 0 33.28 5.973 64.853 17.493 94.293 11.947 30.293 31.147 58.453 57.173 82.773 32.853 32.427 70.4 48.64 110.507 48.64 16.64 0 33.707-3.84 48.213-10.667 16.64-7.68 30.72-19.2 40.96-34.56l98.987-139.52c8.96-12.373 15.787-24.32 20.48-36.267 5.547-12.8 8.533-25.6 8.533-37.973 0-16.213-4.693-32-13.653-46.933-6.4-11.52-16.213-23.893-28.587-36.267l-29.013-30.293c0.427-1.28 0.853-2.133 1.28-2.987 5.12-8.96 15.36-24.32 34.987-47.36 20.907-23.893 40.533-45.653 60.16-65.707 25.173-24.747 46.080-44.373 65.707-60.587 24.32-20.48 40.832-31.296 50.219-35.989l29.568 29.163c13.227 13.227 26.027 23.040 38.4 29.44 23.467 14.507 53.333 17.067 83.2 4.693 11.093-4.693 23.040-11.093 35.84-20.053l141.653-100.693c15.787-10.667 27.307-24.32 34.133-40.533 6.4-16.213 9.387-31.147 9.387-46.080 0-20.48-4.693-40.96-13.653-60.16s-20.053-35.84-34.133-51.2c-24.32-26.88-50.773-46.080-81.493-58.453-29.44-11.947-61.44-18.347-95.147-18.347zM238.507 842.667c-23.467 0-45.227-10.24-66.133-30.72-19.627-18.347-33.28-38.4-41.813-60.16-8.96-22.187-13.227-45.653-13.227-70.827 0-39.68 9.387-82.773 28.16-127.147 19.2-45.227 46.080-92.16 80.213-139.093s72.96-92.587 115.627-135.68c42.667-42.24 88.747-81.493 136.107-116.053 46.080-33.707 93.44-61.013 140.373-80.64 72.96-31.147 141.227-38.4 197.547-14.933 21.76 8.96 40.96 22.613 58.453 42.24 9.813 10.667 17.493 22.187 23.893 35.84 5.12 10.667 7.68 21.76 7.68 32.853 0 6.827-1.28 13.653-4.693 21.333-1.28 2.56-3.84 7.253-11.947 12.8l-141.653 100.693c-8.533 5.973-16.213 10.24-23.467 13.227-9.387 3.84-13.227 7.68-27.733-1.28-8.533-4.267-16.213-10.667-24.747-19.2l-32.427-32c-16.64-16.213-42.24-20.053-61.867-12.8l-11.52 5.12c-17.493 9.387-37.973 23.893-60.587 43.093-20.48 17.493-42.667 37.973-69.547 64.427-20.907 21.333-41.813 43.947-63.573 69.12-20.053 23.467-34.56 43.52-43.52 60.16l-5.12 12.8c-2.56 9.813-3.413 15.36-3.413 21.333 0 15.36 5.547 29.013 16.213 39.68l32 33.28c8.533 8.533 14.933 16.64 19.2 23.893 3.413 5.547 4.693 10.24 4.693 14.507 0 3.413-1.28 8.533-3.413 13.653-2.987 6.827-7.68 14.507-13.653 22.613l-98.987 139.947c-4.267 5.973-9.387 10.24-15.787 13.227-6.827 2.987-14.080 4.693-21.333 4.693zM789.333 544c-17.493 0-32 14.507-32 32 0 15.36-15.36 47.36-40.96 74.667-25.173 26.88-52.907 42.667-76.373 42.667-17.493 0-32 14.507-32 32s14.507 32 32 32c41.387 0 84.907-22.187 122.88-62.72 35.413-37.973 58.453-84.48 58.453-118.613 0-17.493-14.507-32-32-32zM938.667 544c-17.493 0-32 14.507-32 32 0 147.2-119.467 266.667-266.667 266.667-17.493 0-32 14.507-32 32s14.507 32 32 32c182.187 0 330.667-148.48 330.667-330.667 0-17.493-14.507-32-32-32z" />
<glyph unicode="&#xe914;" glyph-name="certified" d="M533.333 277.333c-121.933 0-221.092 100.463-221.092 224 0 123.535 99.159 224 221.092 224s221.090-100.465 221.090-224c0-123.537-99.157-224-221.090-224zM831.991 392.879l69.824 43.605-50.628 64.849 50.628 64.847-69.824 43.606 25.314 78.213-80.55 17.211-2.91 82.133-81.549-11.35-30.95 76.16-72.849-38.491-55.164 61.003-55.125-61.040-72.85 38.49-30.953-76.16-81.545 11.349-2.911-82.133-80.588-17.173 25.315-78.213-69.828-43.606 50.63-64.847-50.63-64.849 69.828-43.605-25.315-78.212 80.551-17.212 2.911-82.133 81.545 11.349 30.953-76.16 72.849 38.494 55.164-61.005 55.125 61.039 72.849-38.49 30.955 76.16 81.545-11.349 2.91 82.133 80.589 17.173-25.314 78.212zM533.333 762.667c142.455 0 257.937-117.002 257.937-261.333 0-144.329-115.482-261.333-257.937-261.333-142.457 0-257.94 117.005-257.94 261.333 0 144.332 115.483 261.333 257.94 261.333zM811.243-21.333l-88.469 139.029c44.399 22.549 84.271 52.642 118.059 88.815l97.835-153.178h-85.193l-42.231-74.667zM128 53.333l97.833 153.178c33.79-36.173 73.66-66.266 118.062-88.815l-88.473-139.029-42.228 74.667h-85.193zM416.822 475.021l72.074-73.92c3.341-3.234 7.761-5.073 12.382-5.15 4.181 0.299 8.111 2.129 11.055 5.15l152.111 154.113c2.927 3.185 4.523 7.396 4.446 11.749s-1.813 8.505-4.851 11.583c-3.038 3.078-7.138 4.843-11.435 4.919s-8.452-1.539-11.597-4.507l-140.39-142.239-60.361 62.046c-15.475 15.906-38.911-7.616-23.434-23.744z" />
<glyph unicode="&#xe915;" glyph-name="chart" d="M728.115 541.17c7.219 9.312 5.521 22.713-3.793 29.931-9.31 7.218-22.711 5.521-29.931-3.791l-98.487-127.054c-7.253-9.097-20.766-10.867-30.263-3.584l-78.144 61.487c-28.070 21.696-68.375 16.58-90.104-11.541l-101.547-131.84c-7.19-9.335-5.451-22.729 3.884-29.918s22.729-5.453 29.919 3.883l101.533 131.823c7.27 9.399 20.698 11.145 30.165 3.883l78.144-61.487c28.023-21.658 68.181-16.614 89.937 10.901l98.688 127.308zM384 906.667c-109.823 0-195.023-21.769-251.961-78.706s-78.706-142.138-78.706-251.961v-256c0-109.824 21.769-195.025 78.706-251.959 56.937-56.939 142.138-78.707 251.961-78.707h256c109.824 0 195.025 21.769 251.959 78.707 56.939 56.934 78.707 142.135 78.707 251.959v256c0 109.823-21.769 195.023-78.707 251.961-56.934 56.937-142.135 78.706-251.959 78.706h-256zM117.333 576c0 103.511 20.898 167.643 59.961 206.706s103.195 59.961 206.706 59.961h256c103.509 0 167.642-20.898 206.707-59.961 39.061-39.063 59.959-103.195 59.959-206.706v-256c0-103.509-20.898-167.642-59.959-206.707-39.066-39.061-103.198-59.959-206.707-59.959h-256c-103.511 0-167.643 20.898-206.706 59.959-39.063 39.066-59.961 103.198-59.961 206.707v256z" />
<glyph unicode="&#xe916;" glyph-name="chat" d="M114.745 749.255c12.003 12.002 28.281 18.745 45.255 18.745h704c16.973 0 33.25-6.743 45.257-18.745 12.002-12.003 18.743-28.281 18.743-45.255v-512c0-16.973-6.741-33.254-18.743-45.257-12.006-12.002-28.284-18.743-45.257-18.743h-533.992c0.192 0 0.378 0.068 0.523 0.196l-20.931 24.205 20.523-24.555-129.322-108.1c-9.324-7.714-20.645-12.629-32.649-14.17-12.004-1.545-24.199 0.35-35.17 5.457-10.971 5.111-20.269 13.227-26.815 23.403-6.546 10.18-10.071 22.007-10.167 34.112l-0.002 0.252 0.001 635.2c0 16.974 6.743 33.253 18.745 45.255zM288.908 176.811c11.444 9.796 26.013 15.185 41.084 15.189h534.008v512h-704v-634.944l128.908 107.755zM362.666 394.667c23.564 0 42.667 19.102 42.667 42.667s-19.102 42.667-42.667 42.667c-23.564 0-42.667-19.102-42.667-42.667s19.103-42.667 42.667-42.667zM554.667 394.667c23.565 0 42.667 19.102 42.667 42.667s-19.102 42.667-42.667 42.667c-23.565 0-42.667-19.102-42.667-42.667s19.102-42.667 42.667-42.667z" />
<glyph unicode="&#xe917;" glyph-name="chatgpt" d="M950.694 540.966c11.452 34.48 15.411 71.006 11.614 107.139-3.793 36.133-15.253 71.040-33.617 102.389-27.221 47.384-68.787 84.9-118.707 107.138s-105.609 28.049-159.044 16.596c-30.357 33.768-69.065 58.954-112.235 73.028-43.174 14.074-89.289 16.541-133.713 7.152-44.426-9.388-85.6-30.301-119.386-60.638s-58.995-69.030-73.095-112.192c-35.598-7.3-69.228-22.114-98.643-43.451s-53.936-48.708-71.926-80.282c-27.519-47.306-39.28-102.137-33.583-156.565 5.696-54.43 28.555-105.638 65.272-146.223-11.491-34.462-15.491-70.985-11.731-107.115 3.76-36.134 15.193-71.049 33.534-102.409 27.257-47.403 68.861-84.924 118.814-107.162s105.678-28.045 159.142-16.576c24.118-27.162 53.751-48.862 86.924-63.654 33.173-14.797 69.12-22.345 105.442-22.14 54.767-0.051 108.139 17.306 152.401 49.557 44.262 32.256 77.133 77.739 93.862 129.89 35.593 7.313 69.218 22.131 98.633 43.469s53.939 48.704 71.936 80.269c27.196 47.236 38.754 101.862 33.024 156.062-5.73 54.204-28.45 105.212-64.917 145.719zM565.756 3.021c-44.855-0.073-88.303 15.65-122.726 44.407l6.054 3.43 203.874 117.683c5.073 2.974 9.289 7.219 12.224 12.318 2.94 5.094 4.501 10.867 4.531 16.751v287.441l86.187-49.86c0.427-0.218 0.794-0.529 1.075-0.913 0.286-0.388 0.469-0.836 0.546-1.306v-238.191c-0.107-50.825-20.348-99.537-56.286-135.479-35.938-35.938-84.655-56.175-135.479-56.282zM153.566 179.038c-22.495 38.844-30.572 84.373-22.81 128.585l6.059-3.635 204.075-117.683c5.050-2.961 10.798-4.527 16.653-4.527s11.604 1.566 16.653 4.527l249.292 143.723v-99.516c-0.021-0.516-0.162-1.020-0.41-1.472-0.243-0.457-0.589-0.849-1.007-1.152l-206.498-119.095c-44.069-25.387-96.412-32.247-145.536-19.076-49.124 13.167-91.013 45.295-116.472 89.323zM99.875 623.121c22.651 39.092 58.404 68.91 100.928 84.173v-242.227c-0.077-5.854 1.419-11.618 4.33-16.695s7.131-9.28 12.221-12.169l248.081-143.117-86.191-49.856c-0.466-0.247-0.986-0.375-1.515-0.375s-1.048 0.128-1.515 0.375l-206.093 118.891c-43.986 25.498-76.077 67.388-89.243 116.493-13.166 49.109-6.336 101.433 18.996 145.515v-1.007zM807.983 458.607l-248.887 144.529 85.99 49.664c0.465 0.247 0.986 0.377 1.515 0.377s1.050-0.13 1.515-0.377l206.093-119.095c31.514-18.185 57.199-44.954 74.069-77.188 16.866-32.235 24.213-68.604 21.188-104.858s-16.303-70.899-38.281-99.891c-21.978-28.992-51.75-51.136-85.841-63.842v242.227c-0.179 5.841-1.873 11.537-4.915 16.525-3.046 4.992-7.33 9.101-12.446 11.93zM893.773 587.593l-6.059 3.635-203.669 118.69c-5.082 2.981-10.863 4.553-16.755 4.553s-11.674-1.572-16.755-4.553l-249.083-143.718v99.511c-0.053 0.506 0.032 1.017 0.245 1.479s0.547 0.857 0.967 1.145l206.092 118.895c31.586 18.196 67.703 27.023 104.119 25.448 36.42-1.575 71.637-13.487 101.534-34.343 29.901-20.856 53.239-49.794 67.294-83.428 14.059-33.635 18.244-70.576 12.075-106.503l-0.004-0.811zM354.411 411.179l-86.187 49.655c-0.431 0.26-0.8 0.61-1.080 1.028s-0.465 0.892-0.541 1.391v237.581c0.047 36.447 10.47 72.127 30.048 102.869s47.504 55.275 80.512 70.731c33.008 15.456 69.732 21.196 105.884 16.549 36.147-4.647 70.229-19.489 98.253-42.791l-6.059-3.435-203.869-117.675c-5.074-2.976-9.287-7.22-12.224-12.317s-4.499-10.869-4.531-16.752l-0.205-286.835zM401.242 512.102l111.018 63.991 111.228-63.991v-127.974l-110.822-63.987-111.219 63.987-0.205 127.974z" />
<glyph unicode="&#xe918;" glyph-name="chats" d="M114.745 813.255c12.002 12.002 28.281 18.745 45.255 18.745h512c16.973 0 33.254-6.743 45.257-18.745s18.743-28.281 18.743-45.255v-128h128c16.973 0 33.254-6.743 45.257-18.745s18.743-28.281 18.743-45.255v-512c0-12.331-7.083-23.561-18.21-28.877-11.123-5.312-24.311-3.763-33.903 3.989l-149.602 120.887h-374.285c-16.974 0-33.252 6.741-45.255 18.743s-18.745 28.284-18.745 45.257v120.149l-139.887-113.037c-9.59-7.753-22.778-9.301-33.904-3.989-11.126 5.316-18.209 16.546-18.209 28.877v512c0 16.974 6.743 33.253 18.745 45.255zM352 352v-128h385.6c7.322 0 14.417-2.509 20.113-7.113l106.287-85.888v445.001h-128v-160c0-16.973-6.741-33.254-18.743-45.257s-28.284-18.743-45.257-18.743h-320zM672 768h-512v-445.001l106.287 85.888c5.693 4.604 12.792 7.113 20.113 7.113h385.6v352z" />
<glyph unicode="&#xe919;" glyph-name="check" d="M806.647 651.727c12.484-12.508 12.467-32.769-0.038-45.255l-362.88-362.24c-12.501-12.48-32.748-12.467-45.236 0.021l-181.12 181.12c-12.497 12.497-12.497 32.755 0 45.252s32.758 12.497 45.255 0l158.513-158.511 340.251 339.652c12.51 12.486 32.772 12.468 45.257-0.040z" />
<glyph unicode="&#xe91a;" glyph-name="circle" d="M510.72 21.333c235.639 0 426.667 191.027 426.667 426.667 0 235.642-191.027 426.667-426.667 426.667-235.642 0-426.667-191.025-426.667-426.667 0-235.639 191.025-426.667 426.667-426.667z" />
<glyph unicode="&#xe91b;" glyph-name="clock" d="M512-10.667c-223.573 0-405.333 181.76-405.333 405.333s181.76 405.333 405.333 405.333c223.573 0 405.333-181.76 405.333-405.333s-181.76-405.333-405.333-405.333zM512 736c-188.16 0-341.333-153.173-341.333-341.333s153.173-341.333 341.333-341.333c188.16 0 341.333 153.173 341.333 341.333s-153.173 341.333-341.333 341.333zM512 373.333c-17.493 0-32 14.507-32 32v213.333c0 17.493 14.507 32 32 32s32-14.507 32-32v-213.333c0-17.493-14.507-32-32-32zM640 842.667h-256c-17.493 0-32 14.507-32 32s14.507 32 32 32h256c17.493 0 32-14.507 32-32s-14.507-32-32-32z" />
<glyph unicode="&#xe91c;" glyph-name="close" d="M308.355 244.352c-12.497 12.497-12.497 32.759 0 45.257l362.036 362.039c12.497 12.497 32.759 12.497 45.257 0s12.497-32.758 0-45.255l-362.038-362.040c-12.497-12.497-32.758-12.497-45.255 0zM308.355 651.648c12.497 12.497 32.758 12.497 45.255 0l362.039-362.039c12.497-12.497 12.497-32.759 0-45.257-12.497-12.493-32.759-12.493-45.257 0l-362.037 362.041c-12.497 12.497-12.497 32.758 0 45.255z" />
<glyph unicode="&#xe91d;" glyph-name="copy" d="M278.535 824.889h234.592c14.942 0.001 27.904 0.001 38.647-0.732 11.328-0.773 22.763-2.479 34.091-7.171 25.438-10.537 45.649-30.749 56.188-56.188 4.693-11.327 6.4-22.761 7.172-34.092 0.734-10.742 0.734-23.704 0.73-38.646v-1.127c0-19.637-15.919-35.555-35.554-35.555s-35.554 15.919-35.554 35.555c0 16.391-0.021 26.903-0.567 34.932-0.525 7.71-1.421 10.501-1.924 11.719-3.319 8.015-9.685 14.383-17.702 17.703-1.22 0.505-4.011 1.397-11.721 1.923-8.030 0.548-18.539 0.567-34.931 0.567h-232.106c-19.703 0-32.342-0.028-41.942-0.812-9.185-0.751-12.415-2.013-13.868-2.753-6.155-3.136-11.159-8.14-14.295-14.295-0.741-1.454-2.003-4.684-2.753-13.868-0.784-9.6-0.812-22.239-0.812-41.942v-232.107c0-16.393 0.019-26.901 0.567-34.931 0.526-7.71 1.418-10.5 1.923-11.721 3.32-8.013 9.688-14.383 17.703-17.702 1.218-0.503 4.009-1.395 11.719-1.924 8.029-0.546 18.542-0.567 34.932-0.567 19.636 0 35.555-15.919 35.555-35.554s-15.919-35.554-35.555-35.554h-1.127c-14.942 0-27.904-0.004-38.646 0.73-11.331 0.772-22.764 2.479-34.092 7.172-25.44 10.539-45.651 30.75-56.188 56.188-4.692 11.328-6.398 22.763-7.171 34.091-0.733 10.743-0.733 23.706-0.732 38.647v234.592c0 17.956-0.001 33.53 1.048 46.374 1.11 13.583 3.568 27.212 10.268 40.361 9.954 19.535 25.837 35.418 45.372 45.372 13.149 6.7 26.779 9.158 40.361 10.268 12.844 1.049 28.418 1.049 46.374 1.048zM517.47 585.955h227.998c17.954 0.001 33.527 0.001 46.37-1.048 13.585-1.11 27.213-3.568 40.363-10.268 19.537-9.954 35.418-25.837 45.372-45.373 6.703-13.15 9.161-26.778 10.27-40.363 1.050-12.843 1.050-28.416 1.045-46.37v-228.002c0.004-17.954 0.004-33.527-1.045-46.37-1.109-13.585-3.567-27.213-10.27-40.363-9.954-19.537-25.835-35.418-45.372-45.372-13.15-6.699-26.778-9.161-40.363-10.27-12.843-1.050-28.416-1.045-46.37-1.045h-228.002c-17.954 0-33.527-0.004-46.37 1.045-13.585 1.109-27.213 3.571-40.363 10.27-19.535 9.954-35.418 25.835-45.372 45.372-6.7 13.15-9.158 26.778-10.268 40.363-1.050 12.843-1.049 28.416-1.048 46.374v227.998c0 17.954-0.001 33.527 1.048 46.37 1.11 13.585 3.568 27.213 10.268 40.363 9.954 19.536 25.837 35.418 45.372 45.373 13.15 6.7 26.778 9.158 40.363 10.268 12.843 1.049 28.416 1.049 46.374 1.048zM476.885 514.031c-9.186-0.751-12.416-2.010-13.871-2.752-6.153-3.136-11.157-8.141-14.293-14.293-0.742-1.455-2.001-4.685-2.752-13.871-0.785-9.6-0.815-22.238-0.815-41.941v-225.28c0-19.703 0.030-32.341 0.815-41.941 0.751-9.186 2.010-12.416 2.752-13.871 3.136-6.153 8.141-11.157 14.293-14.293 1.455-0.742 4.685-2.001 13.871-2.752 9.6-0.785 22.238-0.815 41.941-0.815h225.28c19.703 0 32.341 0.030 41.941 0.815 9.186 0.751 12.416 2.010 13.871 2.752 6.153 3.136 11.157 8.141 14.293 14.293 0.742 1.455 2.005 4.685 2.752 13.871 0.785 9.6 0.815 22.238 0.815 41.941v225.28c0 19.703-0.030 32.341-0.815 41.941-0.747 9.186-2.010 12.416-2.752 13.871-3.136 6.153-8.141 11.157-14.293 14.293-1.455 0.742-4.685 2.001-13.871 2.752-9.6 0.785-22.238 0.815-41.941 0.815h-225.28c-19.703 0-32.341-0.030-41.941-0.815z" />
<glyph unicode="&#xe91e;" glyph-name="dashboard" d="M597.333 519.113c0-15.71-12.736-28.446-28.446-28.446h-369.776c-15.709 0-28.445 12.736-28.445 28.446 0 15.708 12.735 28.443 28.445 28.443h369.776c15.71 0 28.446-12.735 28.446-28.443zM597.333 632.889c0-15.709-12.736-28.444-28.446-28.444h-369.776c-15.709 0-28.445 12.735-28.445 28.444s12.735 28.445 28.445 28.445h369.776c15.71 0 28.446-12.735 28.446-28.445zM128 832h768c47.13 0 85.333-38.205 85.333-85.333v-597.333c0-47.13-38.204-85.333-85.333-85.333h-768c-47.128 0-85.333 38.204-85.333 85.333v597.333c0 47.128 38.205 85.333 85.333 85.333zM149.333 768c-23.564 0-42.667-19.103-42.667-42.667v-554.667c0-23.565 19.102-42.667 42.667-42.667h725.333c23.565 0 42.667 19.102 42.667 42.667v554.667c0 23.564-19.102 42.667-42.667 42.667h-725.333z" />
<glyph unicode="&#xe91f;" glyph-name="ecommerce" d="M256 640c-17.673 0-32-14.327-32-32s14.327-32 32-32h501.692c17.673 0 32 14.327 32 32s-14.327 32-32 32h-501.692zM216.8 832c-10.835 0-20.934-5.483-26.836-14.57-37.645-57.961-58.95-125.008-61.667-194.068s13.255-137.573 46.231-198.313c32.976-60.74 81.734-111.454 141.13-146.79 50.195-29.862 106.415-47.812 164.342-52.655v-129.604h-128c-17.673 0-32-14.327-32-32s14.327-32 32-32h320c17.673 0 32 14.327 32 32s-14.327 32-32 32h-128v129.604c57.929 4.843 114.146 22.793 164.343 52.655 59.396 35.337 108.151 86.050 141.129 146.79s48.947 129.253 46.229 198.313c-2.714 69.060-24.021 136.107-61.666 194.068-5.901 9.087-16 14.57-26.833 14.57h-590.402zM192.247 620.847c2.039 51.849 16.652 102.337 42.47 147.153h554.565c25.818-44.816 40.431-95.304 42.47-147.153 2.266-57.55-11.046-114.645-38.528-165.261-27.477-50.615-68.109-92.877-117.606-122.325s-106.022-44.992-163.618-44.992c-57.596 0-114.121 15.543-163.618 44.992s-90.128 71.71-117.608 122.325c-27.48 50.615-40.79 107.711-38.526 165.261z" />
<glyph unicode="&#xe920;" glyph-name="edit" d="M640-10.667h-256c-231.68 0-330.667 98.987-330.667 330.667v256c0 231.68 98.987 330.667 330.667 330.667h85.333c17.493 0 32-14.507 32-32s-14.507-32-32-32h-85.333c-196.693 0-266.667-69.973-266.667-266.667v-256c0-196.693 69.973-266.667 266.667-266.667h256c196.693 0 266.667 69.973 266.667 266.667v85.333c0 17.493 14.507 32 32 32s32-14.507 32-32v-85.333c0-231.68-98.987-330.667-330.667-330.667zM362.66 205.244c-26.027 0-49.92 9.387-67.413 26.453-20.907 20.907-29.867 51.2-25.173 83.2l18.347 128.427c3.413 24.747 19.627 56.747 37.12 74.24l336.212 336.215c84.907 84.907 171.093 84.907 256 0 46.507-46.507 67.413-93.867 63.147-141.227-3.84-38.4-24.32-75.947-63.147-114.347l-336.213-336.215c-17.493-17.493-49.493-33.707-74.24-37.12l-128.425-18.347c-5.547-1.28-11.093-1.28-16.213-1.28zM706.978 808.552l-336.212-336.215c-8.107-8.107-17.493-26.88-19.2-37.973l-18.347-128.427c-1.707-12.373 0.853-22.613 7.253-29.013s16.64-8.96 29.013-7.253l128.425 18.347c11.093 1.707 30.293 11.093 37.973 19.2l336.213 336.215c27.733 27.733 42.24 52.48 44.373 75.52 2.56 27.733-11.947 57.173-44.373 90.027-68.267 68.267-115.2 49.067-165.12-0.427zM846.938 540.575c-2.987 0-5.973 0.427-8.533 1.28-112.213 31.573-201.387 120.747-232.96 232.96-4.693 17.067 5.12 34.56 22.187 39.68 17.067 4.693 34.56-5.12 39.253-22.187 25.6-90.88 97.707-162.987 188.587-188.587 17.067-4.693 26.88-22.613 22.187-39.68-3.84-14.507-16.64-23.467-30.72-23.467z" />
<glyph unicode="&#xe921;" glyph-name="email" d="M454.4 488.533l-234.313 175.735c-15.82 11.865-38.506 6.685-47.608-10.87-7.201-13.887-3.306-30.944 9.208-40.33l234.313-175.735c56.888-42.667 135.113-42.667 192 0l234.313 175.737c12.514 9.386 16.41 26.443 9.207 40.33-9.101 17.554-31.787 22.734-47.607 10.87l-234.313-175.737c-34.133-25.6-81.067-25.6-115.2 0zM85.333 704v-512c0-47.13 38.205-85.333 85.333-85.333h682.667c47.13 0 85.333 38.204 85.333 85.333v512c0 47.128-38.204 85.333-85.333 85.333h-682.667c-47.128 0-85.333-38.205-85.333-85.333zM149.333 682.667c0 23.564 19.103 42.667 42.667 42.667h640c23.565 0 42.667-19.103 42.667-42.667v-469.333c0-23.565-19.102-42.667-42.667-42.667h-640c-23.564 0-42.667 19.102-42.667 42.667v469.333z" />
<glyph unicode="&#xe922;" glyph-name="eye" d="M512 568.747c-66.807 0-120.747-53.939-120.747-120.747s53.939-120.747 120.747-120.747c66.807 0 120.747 53.939 120.747 120.747s-53.939 120.747-120.747 120.747zM327.253 448c0 102.153 82.593 184.747 184.747 184.747s184.747-82.594 184.747-184.747c0-102.153-82.594-184.747-184.747-184.747s-184.747 82.594-184.747 184.747zM96.32 576.13c102.013 160.357 251.5 257.15 415.68 257.15 164.186 0 313.681-96.802 415.693-257.172 23.253-36.452 33.801-83.146 33.801-127.895s-10.547-91.443-33.801-127.893c-102.012-160.371-251.507-257.173-415.693-257.173-164.188 0-313.681 96.802-415.694 257.173-23.252 36.45-33.8 83.145-33.8 127.893 0 44.757 10.551 91.461 33.813 127.916zM512 769.28c-137.039 0-268.293-80.691-361.693-227.522l-0.026-0.042c-15.129-23.7-23.773-57.629-23.773-93.503s8.644-69.803 23.773-93.504l0.027-0.043c93.4-146.829 224.654-227.52 361.693-227.52 137.037 0 268.292 80.691 361.694 227.52l0.026 0.043c15.13 23.701 23.774 57.63 23.774 93.504s-8.644 69.803-23.774 93.503l-0.026 0.042c-93.402 146.831-224.657 227.522-361.694 227.522z" />
<glyph unicode="&#xe923;" glyph-name="eyeClose" d="M512 568.747c-66.807 0-120.747-53.939-120.747-120.747 0-21.777 5.714-42.091 15.799-59.691l164.638 164.638c-17.6 10.085-37.914 15.799-59.691 15.799zM327.253 448c0 102.153 82.594 184.747 184.747 184.747 51.106 0 97.114-20.712 130.573-54.173 12.497-12.497 12.497-32.758 0-45.254l-215.893-215.893c-12.495-12.497-32.757-12.497-45.254 0-33.46 33.459-54.173 79.467-54.173 130.573zM96.32 575.703c102.013 160.357 251.5 257.15 415.68 257.15 95.983 0 187.968-33.434 267.588-93.492 14.11-10.643 16.922-30.708 6.281-44.817-10.645-14.109-30.711-16.92-44.817-6.278-69.713 52.582-148.395 80.588-229.052 80.588-137.039 0-268.293-80.691-361.693-227.522l-0.027-0.042c-15.129-23.7-23.773-57.629-23.773-93.503s8.645-69.803 23.773-93.504c32.161-50.479 69.415-93.717 109.519-128.209 13.399-11.52 14.92-31.727 3.397-45.124-11.523-13.402-31.728-14.921-45.127-3.396-45.23 38.895-86.497 86.985-121.75 142.319-23.261 36.454-33.812 83.157-33.812 127.915s10.551 91.461 33.813 127.916zM835.409 646.588c13.773 11.077 33.916 8.893 44.992-4.879 16.38-20.364 32.469-42.245 47.309-65.63 23.241-36.448 33.783-83.126 33.783-127.866 0-44.757-10.551-91.46-33.813-127.915-102.012-160.358-251.499-257.152-415.68-257.152-57.024 0-112.861 12.058-165.164 34.082-16.288 6.857-23.933 25.621-17.075 41.907 6.858 16.29 25.622 23.936 41.91 17.075 44.976-18.935 92.393-29.065 140.329-29.065 137.041 0 268.292 80.691 361.694 227.52l0.026 0.043c15.13 23.701 23.774 57.63 23.774 93.504s-8.644 69.803-23.774 93.503l-0.043 0.071c-13.321 20.989-27.951 40.92-43.145 59.81-11.076 13.771-8.892 33.914 4.877 44.991zM667.563 449.604c17.382-3.204 28.873-19.895 25.668-37.274-13.5-73.212-72.777-132.489-145.988-145.988-17.378-3.204-34.069 8.286-37.274 25.668-3.204 17.378 8.286 34.069 25.668 37.274 47.108 8.687 85.965 47.543 94.652 94.652 3.204 17.382 19.895 28.873 37.274 25.668zM426.679 362.679c12.497-12.497 12.497-32.755 0-45.252l-318.719-318.72c-12.497-12.497-32.758-12.497-45.255 0s-12.497 32.755 0 45.252l318.72 318.72c12.497 12.497 32.758 12.497 45.254 0zM961.293 897.294c12.497-12.497 12.497-32.758 0-45.255l-318.72-318.719c-12.497-12.497-32.755-12.497-45.252 0-12.497 12.495-12.497 32.757 0 45.254l318.72 318.72c12.497 12.497 32.755 12.497 45.252 0z" />
<glyph unicode="&#xe924;" glyph-name="fileDocument" d="M341.333 800c-53.019 0-96-42.981-96-96v-512c0-53.018 42.981-96 96-96h341.333c53.018 0 96 42.982 96 96v368h-160c-41.237 0-74.667 33.429-74.667 74.667v165.333h-202.667zM608 753.501l126.622-129.501h-115.955c-5.892 0-10.667 4.776-10.667 10.667v118.834zM181.333 704c0 88.366 71.634 160 160 160h234.667c8.61 0 16.858-3.471 22.882-9.628l234.667-240c5.845-5.979 9.118-14.010 9.118-22.372v-400c0-88.367-71.633-160-160-160h-341.333c-88.366 0-160 71.633-160 160v512zM352 405.333c0 17.673 14.327 32 32 32h256c17.673 0 32-14.327 32-32s-14.327-32-32-32h-256c-17.673 0-32 14.327-32 32zM352 234.667c0 17.673 14.327 32 32 32h256c17.673 0 32-14.327 32-32s-14.327-32-32-32h-256c-17.673 0-32 14.327-32 32z" />
<glyph unicode="&#xe925;" glyph-name="fingerPrint" d="M394.764 779.864c37.595 13.428 77.232 20.241 117.151 20.136h0.085c93.355 0 182.891-37.085 248.9-103.098 66.010-66.009 103.095-155.535 103.1-248.884-0.043-83.767-9.306-167.279-27.627-249.020-3.866-17.246 6.985-34.359 24.226-38.221 17.246-3.866 34.359 6.98 38.225 24.226 19.349 86.323 29.133 174.532 29.175 262.997 0 110.33-43.827 216.141-121.843 294.156-78.007 78.005-183.799 121.833-294.114 121.844-47.3 0.119-94.263-7.955-138.806-23.864-16.643-5.945-25.317-24.256-19.372-40.899s24.256-25.317 40.899-19.372zM564.919 665.762c-44.105 10.723-90.423 7.795-132.83-8.397-42.402-16.192-78.886-44.884-104.617-82.275s-39.497-81.718-39.473-127.107v-0.060c0.225-92.087-23.174-182.694-67.961-263.159-8.595-15.441-3.044-34.931 12.398-43.524s34.929-3.046 43.524 12.399c50.105 90.018 76.285 191.386 76.039 294.409-0.011 32.41 9.821 64.060 28.195 90.761 18.38 26.708 44.439 47.202 74.726 58.768 30.289 11.566 63.377 13.658 94.878 5.998 31.505-7.66 59.938-24.709 81.536-48.89 11.772-13.181 32-14.323 45.18-2.551 13.184 11.773 14.323 32.002 2.551 45.183-30.234 33.853-70.042 57.722-114.146 68.445zM544 448.051c-0.026 17.673-14.374 31.974-32.051 31.949-17.673-0.026-31.974-14.374-31.949-32.051 0.094-62.046-7.757-123.849-23.369-183.898-4.45-17.105 5.811-34.573 22.916-39.023 17.105-4.446 34.577 5.815 39.023 22.921 16.986 65.34 25.532 132.587 25.429 200.102zM736 448.026c-0.013 17.673-14.353 31.987-32.026 31.974s-31.987-14.353-31.974-32.026c0.098-120.934-23.415-240.73-69.218-352.657-6.69-16.354 1.143-35.042 17.498-41.732 16.358-6.694 35.042 1.139 41.737 17.498 48.956 119.633 74.086 247.676 73.984 376.943zM471.279 114.219c7.612 15.949 0.853 35.046-15.095 42.662-15.949 7.612-35.051 0.853-42.663-15.1-8.242-17.267-16.765-34.3-25.588-50.411-8.489-15.501-2.804-34.948 12.697-43.439 15.501-8.486 34.95-2.803 43.436 12.698 9.579 17.489 18.654 35.657 27.213 53.589zM267.969 692.039c12.497 12.497 12.497 32.758 0 45.255s-32.758 12.497-45.255 0c-24.131-24.131-71.119-72.188-94.085-187.018-6.982-34.909-9.718-64.029-12.424-92.825-6.269-66.722-12.377-131.729-70.773-263.121-7.178-16.149 0.096-35.059 16.245-42.24 16.15-7.177 35.061 0.098 42.239 16.247 62.823 141.35 70.371 220.254 77.030 289.873 2.57 26.871 5.008 52.356 10.44 79.514 19.444 97.219 57.050 134.797 75.847 153.58l0.735 0.735z" />
<glyph unicode="&#xe926;" glyph-name="fullScreen" d="M160 768c0 17.673 14.327 32 32 32h160c17.673 0 32-14.327 32-32s-14.327-32-32-32h-82.745l169.371-169.373c12.497-12.497 12.497-32.758 0-45.254-12.495-12.497-32.757-12.497-45.254 0l-169.373 169.371v-82.745c0-17.673-14.327-32-32-32s-32 14.327-32 32v160zM640 768c0 17.673 14.327 32 32 32h160c17.673 0 32-14.327 32-32v-160c0-17.673-14.327-32-32-32s-32 14.327-32 32v82.745l-169.374-169.371c-12.497-12.497-32.755-12.497-45.252 0-12.497 12.495-12.497 32.757 0 45.254l169.37 169.373h-82.743c-17.673 0-32 14.327-32 32zM438.626 374.626c12.497-12.497 12.497-32.755 0-45.252l-169.371-169.374h82.745c17.673 0 32-14.327 32-32s-14.327-32-32-32h-160c-17.673 0-32 14.327-32 32v160c0 17.673 14.327 32 32 32s32-14.327 32-32v-82.743l169.373 169.37c12.497 12.497 32.758 12.497 45.254 0zM585.374 374.626c12.497 12.497 32.755 12.497 45.252 0l169.374-169.37v82.743c0 17.673 14.327 32 32 32s32-14.327 32-32v-160c0-17.673-14.327-32-32-32h-160c-17.673 0-32 14.327-32 32s14.327 32 32 32h82.743l-169.37 169.374c-12.497 12.497-12.497 32.755 0 45.252z" />
<glyph unicode="&#xe927;" glyph-name="globe" d="M173.25 544c-8.631-30.515-13.25-62.72-13.25-96s4.619-65.485 13.25-96h151.884c-3.366 30.844-5.135 63.010-5.135 96s1.769 65.156 5.135 96h-151.884zM198.381 608h136.368c8.403 43.343 20.167 82.843 34.697 116.773 8.937 20.868 19.131 40.12 30.578 57.043-87.738-29.419-160.055-92.459-201.644-173.816zM623.974 781.816c11.447-16.922 21.641-36.175 30.579-57.043 14.532-33.93 26.295-73.431 34.697-116.773h136.367c-41.587 81.357-113.903 144.397-201.643 173.816zM850.752 544h-151.885c3.362-30.844 5.133-63.010 5.133-96s-1.771-65.156-5.133-96h151.885c8.627 30.515 13.248 62.72 13.248 96s-4.621 65.485-13.248 96zM825.617 288h-136.367c-8.401-43.341-20.164-82.842-34.697-116.774-8.939-20.868-19.132-40.119-30.579-57.041 87.74 29.419 160.055 92.459 201.643 173.815zM400.025 114.185c-11.447 16.922-21.641 36.173-30.578 57.041-14.531 33.933-26.295 73.434-34.697 116.774h-136.368c41.589-81.357 113.906-144.397 201.644-173.815zM400.062 288c7.352-34.377 16.952-65.276 28.217-91.575 13.461-31.437 28.668-54.827 43.925-69.897 15.121-14.933 28.531-20.126 39.795-20.126s24.674 5.193 39.795 20.126c15.258 15.070 30.464 38.46 43.925 69.897 11.264 26.3 20.864 57.199 28.215 91.575h-223.874zM634.453 352c3.601 30.391 5.547 62.583 5.547 96s-1.946 65.609-5.547 96h-244.908c-3.598-30.391-5.545-62.583-5.545-96s1.947-65.609 5.545-96h244.908zM400.062 608h223.874c-7.351 34.377-16.951 65.276-28.215 91.577-13.461 31.434-28.668 54.827-43.925 69.896-15.121 14.933-28.531 20.127-39.795 20.127s-24.674-5.194-39.795-20.127c-15.258-15.069-30.464-38.461-43.925-69.896-11.265-26.301-20.865-57.2-28.217-91.577zM96 448c0 229.751 186.249 416 416 416s416-186.249 416-416c0-229.751-186.249-416-416-416s-416 186.249-416 416z" />
<glyph unicode="&#xe928;" glyph-name="globeSearch" d="M512 906.667c253.193 0 458.667-205.474 458.667-458.667 0-17.673-14.327-32-32-32s-32 14.327-32 32c0 33.109-4.083 65.271-11.776 96.007-2.999 0.105-6.033 0.637-9.024 1.636-52.322 17.47-105.57 31.173-159.347 41.107 5.175-46.099 7.774-92.423 7.774-138.75 0-17.673-14.327-32-32-32s-32 14.327-32 32c0 49.758-3.162 99.519-9.455 148.981-98.871 12.559-198.955 12.553-297.824-0.019-12.569-98.858-12.574-198.937-0.016-297.796 49.469-6.298 99.239-9.459 149.001-9.459 17.673 0 32-14.327 32-32s-14.327-32-32-32c-46.336 0-92.665 2.598-138.771 7.778 9.935-53.777 23.637-107.029 41.108-159.351 0.984-2.948 1.522-5.982 1.628-9.015 30.747-7.697 62.918-11.785 96.035-11.785 17.673 0 32-14.327 32-32s-14.327-32-32-32c-253.193 0-458.667 205.474-458.667 458.667s205.474 458.667 458.667 458.667zM868.045 618.391c-38.891 81.055-104.649 146.805-185.711 185.683 14.758-49.629 26.394-99.964 34.88-150.705 50.778-8.487 101.158-20.146 150.831-34.977zM608.013 830.889c-30.741 7.693-62.903 11.777-96.013 11.777-33.118 0-65.289-4.087-96.035-11.783-0.106-3.033-0.643-6.070-1.628-9.018-17.457-52.281-31.152-105.489-41.085-159.223 92.151 10.333 185.19 10.339 277.346 0.017-9.929 53.739-23.595 106.957-40.969 159.253-0.986 2.976-1.515 5.995-1.617 8.977zM334.754 800.674c-77.887-39.249-141.021-103.545-178.799-182.283 49.624 14.816 99.951 26.467 150.679 34.952 8.256 49.363 19.508 98.345 33.76 146.671-1.927 0.055-3.812 0.279-5.639 0.66zM129.109 544.007c-7.692-30.735-11.776-62.897-11.776-96.007 0-33.114 4.085-65.28 11.779-96.017 3.018-0.107 6.041-0.64 8.976-1.613 52.29-17.374 105.501-31.036 159.232-40.964-10.321 92.147-10.316 185.173 0.015 277.318-53.727-9.932-106.927-23.626-159.2-41.080-2.991-0.999-6.026-1.531-9.026-1.636zM159.324 270.758c38.104-75.618 99.815-137.327 175.43-175.433 1.827 0.38 3.711 0.606 5.638 0.661-14.264 48.367-25.524 97.395-33.782 146.803-49.351 8.256-98.317 19.486-146.622 33.677-0.052-1.95-0.279-3.861-0.665-5.709zM608 183.467c0 93.077 75.456 168.533 168.533 168.533s168.533-75.456 168.533-168.533c0-35.038-10.692-67.584-28.996-94.541 0.883-0.713 1.737-1.481 2.556-2.3l42.667-42.667c12.497-12.497 12.497-32.755 0-45.252s-32.755-12.497-45.252 0l-42.667 42.667c-0.819 0.819-1.587 1.673-2.3 2.551-26.957-18.3-59.503-28.992-94.541-28.992-93.077 0-168.533 75.456-168.533 168.533zM776.533 288c-57.732 0-104.533-46.801-104.533-104.533s46.801-104.533 104.533-104.533c57.732 0 104.533 46.801 104.533 104.533s-46.801 104.533-104.533 104.533z" />
<glyph unicode="&#xe929;" glyph-name="info" d="M512 650.667c17.673 0 32-14.327 32-32v-213.333c0-17.673-14.327-32-32-32s-32 14.327-32 32v213.333c0 17.673 14.327 32 32 32zM511.765 320c-23.565 0-42.667-19.102-42.667-42.667s19.102-42.667 42.667-42.667h0.384c23.565 0 42.667 19.102 42.667 42.667s-19.102 42.667-42.667 42.667h-0.384zM138.667 448c0 205.406 167.927 373.333 373.333 373.333s373.333-167.927 373.333-373.333c0-205.406-167.927-373.333-373.333-373.333s-373.333 167.927-373.333 373.333zM512 757.333c-170.060 0-309.333-139.273-309.333-309.333s139.273-309.333 309.333-309.333c170.061 0 309.333 139.273 309.333 309.333s-139.273 309.333-309.333 309.333z" />
<glyph unicode="&#xe92a;" glyph-name="key" d="M263.68-10.667c-4.267 0-8.96 0.427-12.8 0.853l-92.587 12.8c-44.373 5.973-84.48 45.653-91.307 90.88l-12.8 93.44c-4.267 29.867 8.533 68.693 29.867 90.453l187.307 187.307c-30.293 121.173 4.694 249.173 93.867 337.493 138.239 137.813 363.092 138.24 501.759 0 66.987-66.987 103.68-156.16 103.68-250.88s-36.693-183.893-103.68-250.88c-89.6-88.747-217.173-123.733-337.493-93.013l-187.732-187.307c-17.92-18.773-49.92-31.147-78.080-31.147zM615.68 842.24c-74.667 0-148.907-28.16-205.653-84.907-76.8-76.373-104.533-188.16-72.533-292.267 3.413-11.52 0.427-23.467-8.107-32l-200.533-200.533c-7.253-7.253-13.227-26.027-11.947-35.84l12.8-93.44c2.56-16.213 20.054-34.56 36.267-36.693l93.013-12.8c10.24-1.707 29.013 4.267 36.267 11.52l201.386 200.96c8.533 8.533 20.907 11.093 32 7.68 102.827-32.427 215.040-4.693 291.84 72.107 54.613 54.613 84.907 128 84.907 205.653 0 78.080-30.293 151.040-84.907 205.653-55.467 56.32-130.133 84.907-204.8 84.907zM392.107 83.627c-8.107 0-16.213 2.987-22.613 9.387l-98.133 98.133c-12.373 12.373-12.373 32.853 0 45.227s32.853 12.373 45.227 0l98.133-98.133c12.373-12.373 12.373-32.853 0-45.227-6.4-6.4-14.507-9.387-22.613-9.387zM618.667 458.667c-52.907 0-96 43.093-96 96s43.093 96 96 96c52.907 0 96-43.093 96-96s-43.093-96-96-96zM618.667 586.667c-17.493 0-32-14.507-32-32s14.507-32 32-32c17.493 0 32 14.507 32 32s-14.507 32-32 32z" />
<glyph unicode="&#xe92b;" glyph-name="link" d="M599.701 751.621c45.82 45.821 120.111 45.822 165.931 0l49.988-49.987c45.824-45.822 45.824-120.113 0-165.935l-67.661-67.659c-12.497-12.497-32.755-12.497-45.252 0s-12.497 32.755 0 45.252l67.661 67.662c20.826 20.828 20.826 54.597 0 75.425l-49.988 49.987c-20.83 20.828-54.596 20.828-75.426 0l-192.209-192.207c-20.826-20.83-20.826-54.601 0-75.426l24.994-24.994c12.497-12.497 12.497-32.759 0-45.257-12.497-12.493-32.759-12.493-45.257 0l-24.992 24.994c-45.821 45.824-45.821 120.115 0 165.936l192.211 192.209zM546.261 527.514c12.497 12.499 32.759 12.499 45.257 0l24.99-24.99c45.824-45.824 45.824-120.115 0-165.935l-192.207-192.209c-45.821-45.824-120.113-45.824-165.934 0l-49.987 49.984c-45.821 45.824-45.822 120.115 0 165.935l67.66 67.661c12.497 12.497 32.758 12.497 45.255 0s12.497-32.755 0-45.252l-67.66-67.661c-20.828-20.83-20.828-54.596 0-75.426l49.987-49.988c20.828-20.826 54.597-20.826 75.424 0l192.21 192.209c20.826 20.83 20.826 54.596 0 75.426l-24.994 24.994c-12.497 12.497-12.497 32.759 0 45.252z" />
<glyph unicode="&#xe92c;" glyph-name="lock" d="M768 501.333c-17.493 0-32 14.507-32 32v85.333c0 134.4-37.973 224-224 224s-224-89.6-224-224v-85.333c0-17.493-14.507-32-32-32s-32 14.507-32 32v85.333c0 123.733 29.867 288 288 288s288-164.267 288-288v-85.333c0-17.493-14.507-32-32-32zM512 138.667c-76.373 0-138.667 62.293-138.667 138.667s62.293 138.667 138.667 138.667c76.373 0 138.667-62.293 138.667-138.667s-62.293-138.667-138.667-138.667zM512 352c-40.96 0-74.667-33.707-74.667-74.667s33.707-74.667 74.667-74.667c40.96 0 74.667 33.707 74.667 74.667s-33.707 74.667-74.667 74.667zM725.333-10.667h-426.667c-188.16 0-245.333 57.173-245.333 245.333v85.333c0 188.16 57.173 245.333 245.333 245.333h426.667c188.16 0 245.333-57.173 245.333-245.333v-85.333c0-188.16-57.173-245.333-245.333-245.333zM298.667 501.333c-152.747 0-181.333-29.013-181.333-181.333v-85.333c0-152.32 28.587-181.333 181.333-181.333h426.667c152.747 0 181.333 29.013 181.333 181.333v85.333c0 152.32-28.587 181.333-181.333 181.333h-426.667z" />
<glyph unicode="&#xe92d;" glyph-name="lockPassword" d="M768 501.333c-17.493 0-32 14.507-32 32v85.333c0 134.4-37.973 224-224 224s-224-89.6-224-224v-85.333c0-17.493-14.507-32-32-32s-32 14.507-32 32v85.333c0 123.733 29.867 288 288 288s288-164.267 288-288v-85.333c0-17.493-14.507-32-32-32zM725.333-10.667h-426.667c-188.16 0-245.333 57.173-245.333 245.333v85.333c0 188.16 57.173 245.333 245.333 245.333h426.667c188.16 0 245.333-57.173 245.333-245.333v-85.333c0-188.16-57.173-245.333-245.333-245.333zM298.667 501.333c-152.747 0-181.333-29.013-181.333-181.333v-85.333c0-152.32 28.587-181.333 181.333-181.333h426.667c152.747 0 181.333 29.013 181.333 181.333v85.333c0 152.32-28.587 181.333-181.333 181.333h-426.667zM341.333 234.667c-5.547 0-11.093 1.28-16.213 3.413-5.547 2.133-9.813 5.12-14.080 8.96-7.68 8.107-12.374 18.773-12.374 30.293 0 5.547 1.28 11.093 3.413 16.213 2.133 5.547 5.121 9.813 8.961 14.080 4.267 3.84 8.533 6.827 14.080 8.96 15.36 6.827 34.56 2.987 46.506-8.96 3.84-4.267 6.828-8.96 8.961-14.080s3.413-10.667 3.413-16.213c0-11.093-4.694-22.187-12.374-30.293-8.107-7.68-19.2-12.373-30.293-12.373zM512 234.667c-11.093 0-22.187 4.693-30.293 12.373-7.68 8.107-12.373 18.773-12.373 30.293 0 5.547 0.853 11.093 3.413 16.213 2.133 5.12 5.12 9.813 8.96 14.080 9.813 9.813 24.747 14.507 38.4 11.52 2.987-0.427 5.547-1.28 8.107-2.56 2.56-0.853 5.12-2.133 7.68-3.84 2.133-1.28 4.267-3.413 6.4-5.12 3.84-4.267 6.827-8.96 8.96-14.080s3.413-10.667 3.413-16.213c0-11.52-4.693-22.187-12.373-30.293-2.133-1.707-4.267-3.413-6.4-5.12-2.56-1.707-5.12-2.987-7.68-3.84-2.56-1.28-5.12-2.133-8.107-2.56-2.56-0.427-5.547-0.853-8.107-0.853zM682.667 234.667c-11.52 0-22.187 4.693-30.293 12.373-3.84 4.267-6.827 8.96-8.96 14.080s-3.413 10.667-3.413 16.213c0 11.093 4.693 22.187 12.373 30.293 2.133 1.707 4.267 3.413 6.4 5.12 2.56 1.707 5.12 2.987 7.68 3.84 2.56 1.28 5.12 2.133 7.68 2.56 14.080 2.987 28.587-1.707 38.827-11.52 7.68-8.107 12.373-18.773 12.373-30.293 0-5.547-1.28-11.093-3.413-16.213-2.133-5.547-5.12-9.813-8.96-14.080-8.107-7.68-19.2-12.373-30.293-12.373z" />
<glyph unicode="&#xe92e;" glyph-name="logout" d="M256 864c-64.801 0-117.333-52.532-117.333-117.333v-597.333c0-64.802 52.532-117.333 117.333-117.333h298.667c64.802 0 117.333 52.531 117.333 117.333v106.667c0 17.673-14.327 32-32 32s-32-14.327-32-32v-106.667c0-29.457-23.876-53.333-53.333-53.333h-298.667c-29.455 0-53.333 23.876-53.333 53.333v597.333c0 29.455 23.878 53.333 53.333 53.333h298.667c29.457 0 53.333-23.878 53.333-53.333v-130.667c0-17.673 14.327-32 32-32s32 14.327 32 32v130.667c0 64.801-52.531 117.333-117.333 117.333h-298.667zM811.959 577.294c-12.497 12.497-32.755 12.497-45.252 0s-12.497-32.758 0-45.254l52.036-52.041h-349.41c-17.673 0-32-14.327-32-32s14.327-32 32-32h349.41l-52.036-52.041c-12.497-12.497-12.497-32.755 0-45.252s32.755-12.497 45.252 0l106.667 106.667c12.497 12.497 12.497 32.755 0 45.252l-106.667 106.668z" />
<glyph unicode="&#xe92f;" glyph-name="mapMarker" d="M512 355.413c-90.88 0-165.12 73.813-165.12 165.12s74.24 164.693 165.12 164.693c90.88 0 165.12-73.813 165.12-165.12s-74.24-164.693-165.12-164.693zM512 621.227c-55.467 0-101.12-45.227-101.12-101.12s45.227-101.12 101.12-101.12c55.893 0 101.12 45.227 101.12 101.12s-45.653 101.12-101.12 101.12zM512-11.093c-63.147 0-126.72 23.893-176.213 71.253-125.867 121.173-264.96 314.453-212.48 544.427 47.36 208.64 229.547 302.080 388.693 302.080 0 0 0 0 0.427 0 159.147 0 341.333-93.44 388.693-302.507 52.053-229.973-87.040-422.827-212.907-544-49.493-47.36-113.067-71.253-176.213-71.253zM512 842.667c-124.16 0-283.733-66.133-325.973-252.16-46.080-200.96 80.213-374.187 194.56-483.84 73.813-71.253 189.44-71.253 263.253 0 113.92 109.653 240.213 282.88 194.987 483.84-42.667 186.027-202.667 252.16-326.827 252.16z" />
<glyph unicode="&#xe930;" glyph-name="mic" d="M512 117.333c-158.72 0-288 129.28-288 288v213.333c0 158.72 129.28 288 288 288s288-129.28 288-288v-213.333c0-158.72-129.28-288-288-288zM512 842.667c-123.307 0-224-100.267-224-224v-213.333c0-123.733 100.693-224 224-224s224 100.267 224 224v213.333c0 123.733-100.693 224-224 224zM512-10.667c-229.547 0-416 186.453-416 416v85.333c0 17.493 14.507 32 32 32s32-14.507 32-32v-85.333c0-194.133 157.867-352 352-352s352 157.867 352 352v85.333c0 17.493 14.507 32 32 32s32-14.507 32-32v-85.333c0-229.547-186.453-416-416-416zM623.36 608.853c-3.413 0-7.253 0.427-11.093 1.707-68.693 24.747-144.213 24.747-212.907 0-16.213-5.973-34.56 2.56-40.533 19.2s2.56 34.987 19.2 40.96c82.773 29.867 173.653 29.867 256.427 0 16.64-5.973 25.173-24.32 19.2-40.96-4.693-13.227-17.067-20.907-30.293-20.907zM584.533 480.853c-2.56 0-5.547 0.427-8.533 1.28-45.653 12.373-93.867 12.373-139.52 0-17.493-4.693-34.56 5.547-39.253 22.613s5.547 34.56 22.613 39.253c56.747 15.36 116.48 15.36 173.227 0 17.067-4.693 27.307-22.187 22.613-39.253-4.267-14.933-17.067-23.893-31.147-23.893z" />
<glyph unicode="&#xe931;" glyph-name="minus" d="M224 448c0 17.673 14.327 32 32 32h512c17.673 0 32-14.327 32-32s-14.327-32-32-32h-512c-17.673 0-32 14.327-32 32z" />
<glyph unicode="&#xe932;" glyph-name="mute" d="M298.667 202.667h-85.333c-103.253 0-160 56.747-160 160v170.667c0 103.253 56.747 160 160 160h61.013c9.813 0 19.627 2.987 28.16 8.107l124.587 78.080c62.293 38.827 122.88 46.080 170.667 19.627s73.813-81.493 73.813-155.307v-40.96c0-17.493-14.507-32-32-32s-32 14.507-32 32v40.96c0 48.64-14.933 84.907-40.96 98.987-26.027 14.507-64.427 8.107-105.813-17.92l-124.587-77.653c-18.347-11.947-40.107-17.92-61.867-17.92h-61.013c-67.413 0-96-28.587-96-96v-170.667c0-67.413 28.587-96 96-96h85.333c17.493 0 32-14.507 32-32s-14.507-32-32-32zM535.467 81.493c-33.707 0-70.827 11.947-107.947 35.413-14.933 9.387-19.627 29.013-10.24 43.947s29.013 19.627 43.947 10.24c41.387-25.6 79.787-32.427 105.813-17.92s40.96 50.773 40.96 98.987v155.307c0 17.493 14.507 32 32 32s32-14.507 32-32v-155.307c0-73.387-26.453-128.853-73.813-155.307-19.2-10.24-40.533-15.36-62.72-15.36zM768 245.333c-6.827 0-13.227 2.133-19.2 6.4-14.080 10.667-17.067 30.72-6.4 44.8 53.76 71.68 65.28 166.827 30.72 249.173-6.827 16.213 0.853 34.987 17.067 41.813s34.987-0.853 41.813-17.067c43.52-103.253 28.587-223.147-38.4-312.747-6.4-8.107-15.787-12.373-25.6-12.373zM846.080 138.667c-6.827 0-13.227 2.133-19.2 6.4-14.080 10.667-17.067 30.72-6.4 44.8 91.307 121.6 111.36 284.587 52.48 424.96-6.827 16.213 0.853 34.987 17.067 41.813 16.64 6.827 34.987-0.853 41.813-17.067 67.84-161.28 44.8-348.16-60.16-488.107-5.973-8.533-15.787-12.8-25.6-12.8zM85.333-10.667c-8.107 0-16.213 2.987-22.613 9.387-12.373 12.373-12.373 32.853 0 45.227l853.333 853.333c12.373 12.373 32.853 12.373 45.227 0s12.373-32.853 0-45.227l-853.333-853.333c-6.4-6.4-14.507-9.387-22.613-9.387z" />
<glyph unicode="&#xe933;" glyph-name="password" d="M470.187 96h-150.187c-32 0-55.467 1.28-75.52 4.267-142.080 15.787-169.813 100.267-169.813 241.067v213.333c0 140.8 28.16 225.707 171.093 241.493 18.773 2.56 42.24 3.84 74.24 3.84h147.627c17.493 0 32-14.507 32-32s-14.507-32-32-32h-147.627c-29.013 0-49.493-1.28-66.133-3.413-86.613-9.387-115.2-36.693-115.2-177.92v-213.333c0-141.227 28.587-168.107 113.92-177.92 17.92-2.56 38.4-3.413 67.413-3.413h150.187c17.493 0 32-14.507 32-32s-14.507-32-32-32zM704 96h-63.147c-17.493 0-32 14.507-32 32s14.507 32 32 32h63.147c29.013 0 49.493 1.28 66.133 3.413 86.613 9.387 115.2 36.693 115.2 177.92v213.333c0 141.227-28.587 168.107-113.92 177.92-17.92 2.56-38.4 3.413-67.413 3.413h-63.147c-17.493 0-32 14.507-32 32s14.507 32 32 32h63.147c32 0 55.467-1.28 75.52-4.267 142.080-15.787 169.813-100.267 169.813-241.067v-213.333c0-140.8-28.16-225.707-171.093-241.493-18.773-2.56-42.24-3.84-74.24-3.84zM640-10.667c-17.493 0-32 14.507-32 32v853.333c0 17.493 14.507 32 32 32s32-14.507 32-32v-853.333c0-17.493-14.507-32-32-32zM285.867 405.333c-5.547 0-11.093 1.28-16.213 3.413s-9.813 5.12-14.080 8.96c-3.84 4.267-7.253 8.96-9.387 14.080s-2.987 10.667-2.987 16.213c0 11.093 4.693 22.187 12.373 30.293 15.787 15.787 44.373 15.787 60.587 0 7.68-8.107 12.373-19.2 12.373-30.293 0-5.547-1.28-11.093-3.413-16.213s-5.12-9.813-8.96-14.080c-4.267-3.84-8.96-6.827-14.080-8.96s-10.667-3.413-16.213-3.413zM456.533 405.333c-5.547 0-11.093 1.28-16.213 3.413s-9.813 5.12-14.080 8.96c-3.84 4.267-6.827 8.96-9.387 14.080-1.707 5.12-2.987 10.667-2.987 16.213 0 11.093 4.693 22.187 12.373 30.293 15.787 15.787 44.8 15.787 60.587 0 7.68-8.107 12.373-19.2 12.373-30.293 0-5.547-1.28-11.093-3.413-16.213s-5.12-9.813-8.96-14.080c-4.267-3.84-8.96-6.827-14.080-8.96s-10.667-3.413-16.213-3.413z" />
<glyph unicode="&#xe934;" glyph-name="pause" d="M125.9 836.574c22.723 21.402 54.405 27.426 87.86 27.426h154.88c33.455 0 65.135-6.023 87.859-27.426 23.215-21.862 29.901-52.874 29.901-85.214v-606.72c0-32.341-6.686-63.351-29.901-85.214-22.724-21.402-54.404-27.426-87.859-27.426h-154.88c-33.455 0-65.137 6.025-87.86 27.426-23.212 21.862-29.9 52.873-29.9 85.214v606.72c0 32.34 6.688 63.352 29.9 85.214zM169.78 789.986c-4.308-4.058-9.78-13.366-9.78-38.626v-606.72c0-25.259 5.472-34.569 9.78-38.626 4.797-4.518 15.995-10.014 43.98-10.014h154.88c27.985 0 39.183 5.495 43.98 10.014 4.308 4.058 9.78 13.367 9.78 38.626v606.72c0 25.26-5.472 34.568-9.78 38.626-4.797 4.518-15.995 10.014-43.98 10.014h-154.88c-27.985 0-39.183-5.497-43.98-10.014zM567.706 836.617c22.737 21.335 54.349 27.383 87.654 27.383h154.88c33.455 0 65.135-6.023 87.859-27.426 23.215-21.862 29.901-52.874 29.901-85.214v-606.72c0-32.341-6.686-63.351-29.901-85.214-22.724-21.402-54.404-27.426-87.859-27.426h-154.88c-33.455 0-65.135 6.025-87.859 27.426-23.215 21.862-29.901 52.873-29.901 85.214v606.72c0 32.474 6.857 63.444 30.106 85.257zM611.494 789.943c-4.378-4.107-9.894-13.457-9.894-38.583v-606.72c0-25.259 5.474-34.569 9.779-38.626 4.796-4.518 15.996-10.014 43.981-10.014h154.88c27.985 0 39.185 5.495 43.981 10.014 4.305 4.058 9.779 13.367 9.779 38.626v606.72c0 25.26-5.474 34.568-9.779 38.626-4.796 4.518-15.996 10.014-43.981 10.014h-154.88c-27.708 0-38.976-5.472-43.866-10.057z" />
<glyph unicode="&#xe935;" glyph-name="pencil" d="M236.373 127.164c-26.027 0-50.347 8.96-67.84 25.6-22.187 20.907-32.853 52.48-29.013 86.613l15.787 138.24c2.987 26.027 18.773 60.587 37.12 79.36l350.294 370.775c87.467 92.587 178.773 95.147 271.36 7.68s95.147-178.773 7.68-271.36l-350.293-370.775c-17.92-19.2-51.2-37.12-77.227-41.387l-137.387-23.467c-7.253-0.427-13.653-1.28-20.48-1.28zM679.68 835.859c-32.853 0-61.44-20.48-90.453-51.2l-350.294-371.202c-8.533-8.96-18.347-30.293-20.053-42.667l-15.787-138.24c-1.707-14.080 1.707-25.6 9.387-32.853s19.2-9.813 33.28-7.68l137.387 23.467c12.373 2.133 32.853 13.227 41.387 22.187l350.294 370.775c52.907 56.32 72.107 108.373-5.12 180.907-34.133 32.853-63.573 46.507-90.027 46.507zM739.836 492.796c-0.853 0-2.133 0-2.987 0-133.12 13.227-240.213 114.347-260.693 246.614-2.56 17.493 9.387 33.707 26.88 36.693 17.493 2.56 33.707-9.387 36.693-26.88 16.213-103.253 99.84-182.613 203.947-192.853 17.493-1.707 30.293-17.493 28.587-34.987-2.133-16.213-16.213-28.587-32.427-28.587zM896-10.667h-768c-17.493 0-32 14.507-32 32s14.507 32 32 32h768c17.493 0 32-14.507 32-32s-14.507-32-32-32z" />
<glyph unicode="&#xe936;" glyph-name="play" d="M335.787 52.053c-33.707 0-65.707 8.107-93.867 24.32-66.56 38.4-103.253 116.48-103.253 219.307v304.214c0 103.253 36.693 180.907 103.253 219.307s152.32 31.147 241.92-20.48l263.253-151.893c89.173-51.627 138.667-122.454 138.667-199.254s-49.067-147.627-138.667-199.253l-263.253-151.893c-51.627-29.44-101.973-44.373-148.053-44.373zM335.787 779.947c-23.040 0-43.52-5.12-61.867-15.787-46.080-26.453-71.253-84.907-71.253-164.267v-303.787c0-79.36 25.173-137.387 71.253-164.267s109.227-19.2 177.92 20.48l263.253 151.893c68.693 39.68 106.667 90.453 106.667 143.787s-37.973 104.107-106.667 143.787l-263.253 151.893c-41.813 23.893-81.067 36.267-116.053 36.267z" />
<glyph unicode="&#xe937;" glyph-name="playCircle" d="M441.813 566.069c-9.822-5.644-21.547-21.005-21.547-54.922v-126.293c0-33.643 11.686-49.075 21.594-54.788 9.916-5.722 29.18-8.132 58.415 8.691-0.009-0.004 0.009 0.004 0 0l109.252 63.164c29.244 16.836 36.766 34.692 36.766 46.080s-7.522 29.244-36.766 46.080l-109.227 63.148c-0.009 0.005 0.009-0.004 0 0-29.316 16.873-48.614 14.516-58.487 8.841zM409.922 621.558c36.521 20.99 81.244 14.781 122.311-8.866l0.051-0.029 109.175-63.118c-0.009 0.005 0.009-0.006 0 0 41.139-23.696 68.834-59.399 68.834-101.545s-27.661-77.833-68.8-101.525c-0.013-0.009 0.013 0.004 0 0l-109.261-63.168c-41.148-23.689-85.875-29.726-122.359-8.678-36.495 21.060-53.607 62.801-53.607 110.225v126.293c0 47.576 17.076 89.389 53.655 110.411zM512 842.667c-217.968 0-394.667-176.698-394.667-394.667 0-217.967 176.698-394.667 394.667-394.667 217.967 0 394.667 176.7 394.667 394.667 0 217.968-176.7 394.667-394.667 394.667zM53.333 448c0 253.315 205.352 458.667 458.667 458.667s458.667-205.352 458.667-458.667c0-253.316-205.35-458.667-458.667-458.667-253.315 0-458.667 205.35-458.667 458.667z" />
<glyph unicode="&#xe938;" glyph-name="plus" d="M224 448c0 17.673 14.327 32 32 32h512c17.673 0 32-14.327 32-32s-14.327-32-32-32h-512c-17.673 0-32 14.327-32 32zM512 736c17.673 0 32-14.327 32-32v-512c0-17.673-14.327-32-32-32s-32 14.327-32 32v512c0 17.673 14.327 32 32 32z" />
<glyph unicode="&#xe939;" glyph-name="printer" d="M224 800c0 17.673 14.327 32 32 32h512c17.673 0 32-14.327 32-32v-128h42.799c53.257 0 101.201-40.802 101.201-96v-320c0-17.673-14.327-32-32-32h-112v-144c0-17.673-14.327-32-32-32h-512c-17.673 0-32 14.327-32 32v144h-112c-17.673 0-32 14.327-32 32v320c0 55.198 47.945 96 101.2 96h42.8v128zM288 672h448v96h-448v-96zM181.2 608c-22.745 0-37.2-16.798-37.2-32v-288h80v48c0 17.673 14.327 32 32 32h512c17.673 0 32-14.327 32-32v-48h80v288c0 15.202-14.455 32-37.201 32h-661.599zM736 304h-448v-192h448v192zM762.667 474.667c23.565 0 42.667 19.102 42.667 42.667s-19.102 42.667-42.667 42.667c-23.565 0-42.667-19.103-42.667-42.667s19.102-42.667 42.667-42.667z" />
<glyph unicode="&#xe93a;" glyph-name="reload" d="M938.667 430.033c0-198.071-161.399-359.296-359.885-359.296-73.267 0-143.77 22.114-204.055 62.639-16.7 11.972-21.334 34.086-9.282 51.601 12.066 16.589 34.317 21.193 51.949 9.225 47.301-32.247 103.886-49.749 161.388-49.749 157.683 0 285.683 128.068 285.683 285.598 0 157.551-128 285.599-285.683 285.599-153.97 0-280.105-122.537-285.687-275.466l86.266 86.596c14.85 14.733 38.033 14.733 52.865 0 14.852-14.733 14.852-37.777 0-52.514l-141.916-140.958c-7.417-7.369-16.7-11.059-25.967-11.059-10.2 0-19.483 3.691-25.967 11.059l-141.918 141.871c-14.833 14.733-14.833 37.777 0 52.51 14.851 14.751 38.034 14.751 52.867 0l70.501-70.933c12.983 185.177 168.802 332.578 358.956 332.578 198.485 0 359.885-161.224 359.885-359.3zM576.93 639.168c-20.399 0-37.099-16.587-37.099-36.851v-172.284c0-10.129 4.634-19.337 12.049-25.788l79.765-79.232c7.42-7.369 16.7-11.042 26.901-11.042 9.284 0 19.465 3.674 25.967 11.042 14.831 14.75 13.918 37.777-0.917 52.51l-69.568 68.173v156.621c0 20.264-16.7 36.851-37.099 36.851z" />
<glyph unicode="&#xe93b;" glyph-name="screen" d="M169.373 790.627c12.497 12.497 32.758 12.497 45.255 0l169.373-169.373v82.745c0 17.673 14.327 32 32 32s32-14.327 32-32v-160c0-17.673-14.327-32-32-32h-160c-17.673 0-32 14.327-32 32s14.327 32 32 32h82.745l-169.373 169.373c-12.497 12.497-12.497 32.758 0 45.255zM854.626 790.627c12.497-12.497 12.497-32.758 0-45.255l-169.37-169.373h82.743c17.673 0 32-14.327 32-32s-14.327-32-32-32h-160c-17.673 0-32 14.327-32 32v160c0 17.673 14.327 32 32 32s32-14.327 32-32v-82.745l169.374 169.373c12.497 12.497 32.755 12.497 45.252 0zM256 320c-17.673 0-32 14.327-32 32s14.327 32 32 32h160c17.673 0 32-14.327 32-32v-160c0-17.673-14.327-32-32-32s-32 14.327-32 32v82.743l-169.373-169.37c-12.497-12.497-32.758-12.497-45.255 0s-12.497 32.755 0 45.252l169.373 169.374h-82.745zM576 352c0 17.673 14.327 32 32 32h160c17.673 0 32-14.327 32-32s-14.327-32-32-32h-82.743l169.37-169.374c12.497-12.497 12.497-32.755 0-45.252s-32.755-12.497-45.252 0l-169.374 169.37v-82.743c0-17.673-14.327-32-32-32s-32 14.327-32 32v160z" />
<glyph unicode="&#xe93c;" glyph-name="screenCast" d="M640-10.667h-256c-231.68 0-330.667 98.987-330.667 330.667v256c0 231.68 98.987 330.667 330.667 330.667h256c231.68 0 330.667-98.987 330.667-330.667v-256c0-231.68-98.987-330.667-330.667-330.667zM384 842.667c-196.693 0-266.667-69.973-266.667-266.667v-256c0-196.693 69.973-266.667 266.667-266.667h256c196.693 0 266.667 69.973 266.667 266.667v256c0 196.693-69.973 266.667-266.667 266.667h-256zM699.733 138.667h-162.133c-81.92 0-121.6 39.68-121.6 121.6v76.8c0 81.92 39.68 121.6 121.6 121.6h162.133c81.92 0 121.6-39.68 121.6-121.6v-76.8c0-81.92-39.68-121.6-121.6-121.6zM537.6 394.667c-46.080 0-57.6-11.52-57.6-57.6v-76.8c0-46.080 11.52-57.6 57.6-57.6h162.133c46.080 0 57.6 11.52 57.6 57.6v76.8c0 46.080-11.52 57.6-57.6 57.6h-162.133z" />
<glyph unicode="&#xe93d;" glyph-name="search" d="M426.667 757.333c-123.712 0-224-100.288-224-224s100.288-224 224-224c123.712 0 224 100.288 224 224s-100.288 224-224 224zM138.667 533.333c0 159.058 128.942 288 288 288s288-128.942 288-288c0-68.002-23.569-130.496-62.98-179.767l181.606-181.606c12.497-12.497 12.497-32.755 0-45.252s-32.755-12.497-45.252 0l-181.606 181.606c-49.271-39.411-111.765-62.98-179.767-62.98-159.058 0-288 128.943-288 288z" />
<glyph unicode="&#xe93e;" glyph-name="setting" d="M512 288c-88.32 0-160 71.68-160 160s71.68 160 160 160c88.32 0 160-71.68 160-160s-71.68-160-160-160zM512 544c-52.907 0-96-43.093-96-96s43.093-96 96-96c52.907 0 96 43.093 96 96s-43.093 96-96 96zM648.96 13.214c-8.96 0-17.92 1.28-26.88 3.413-26.453 7.253-48.64 23.893-62.72 47.36l-5.12 8.533c-25.173 43.52-59.733 43.52-84.907 0l-4.693-8.107c-14.080-23.893-36.267-40.96-62.72-47.787-26.88-7.253-54.613-3.413-78.080 10.667l-73.387 42.24c-26.027 14.933-44.8 39.253-52.907 68.693-7.68 29.44-3.84 59.733 11.093 85.76 12.373 21.76 15.787 41.387 8.533 53.76s-25.6 19.627-50.773 19.627c-62.293 0-113.067 50.773-113.067 113.067v75.093c0 62.294 50.773 113.067 113.067 113.067 25.173 0 43.52 7.253 50.773 19.627s4.267 32-8.533 53.76c-14.933 26.027-18.773 56.747-11.093 85.76 7.68 29.44 26.453 53.76 52.907 68.693l73.813 42.24c48.213 28.587 111.787 11.947 140.8-37.12l5.12-8.533c25.173-43.52 59.733-43.52 84.907 0l4.693 8.107c29.013 49.493 92.587 66.133 141.227 37.12l73.387-42.24c26.027-14.933 44.8-39.253 52.907-68.693 7.68-29.44 3.84-59.733-11.093-85.76-12.373-21.76-15.787-41.387-8.533-53.76s25.6-19.627 50.773-19.627c62.293 0 113.067-50.773 113.067-113.067v-75.093c0-62.293-50.773-113.067-113.067-113.067-25.173 0-43.52-7.253-50.773-19.627s-4.267-32 8.533-53.76c14.933-26.027 19.2-56.747 11.093-85.76-7.68-29.44-26.453-53.76-52.907-68.693l-73.813-42.24c-16.213-8.96-33.707-13.653-51.627-13.653zM512 171.081c37.973 0 73.387-23.893 97.707-66.133l4.693-8.107c5.12-8.96 13.653-15.36 23.893-17.92s20.48-1.28 29.013 3.84l73.813 42.667c11.093 6.4 19.627 17.067 23.040 29.867s1.707 26.027-4.693 37.12c-24.32 41.813-27.307 84.907-8.533 117.76s57.6 51.627 106.24 51.627c27.307 0 49.067 21.76 49.067 49.067v75.093c0 26.88-21.76 49.067-49.067 49.067-48.64 0-87.467 18.773-106.24 51.627s-15.787 75.947 8.533 117.76c6.4 11.093 8.107 24.32 4.693 37.12s-11.52 23.040-22.613 29.867l-73.813 42.24c-18.347 11.093-42.667 4.693-53.76-14.080l-4.693-8.107c-24.32-42.24-59.733-66.133-97.707-66.133s-73.387 23.893-97.707 66.133l-4.693 8.533c-10.667 17.92-34.56 24.32-52.907 13.653l-73.813-42.667c-11.093-6.4-19.627-17.067-23.040-29.867s-1.707-26.027 4.693-37.12c24.32-41.813 27.307-84.907 8.533-117.76s-57.6-51.627-106.24-51.627c-27.307 0-49.067-21.76-49.067-49.067v-75.093c0-26.88 21.76-49.067 49.067-49.067 48.64 0 87.467-18.773 106.24-51.627s15.787-75.947-8.533-117.76c-6.4-11.093-8.107-24.32-4.693-37.12s11.52-23.040 22.613-29.867l73.813-42.24c8.96-5.547 19.627-6.827 29.44-4.267 10.24 2.56 18.773 9.387 24.32 18.347l4.693 8.107c24.32 41.813 59.733 66.133 97.707 66.133z" />
<glyph unicode="&#xe93f;" glyph-name="thumbsUp" d="M861.457 200.836c-15.458-74.193-80.849-127.364-156.638-127.364h-219.831c-31.586 0-62.468 9.348-88.751 26.871l-46.003 30.669v-57.54h-160c-41.237 0-74.667 33.429-74.667 74.667v426.665c0 41.237 33.429 74.667 74.667 74.667h160v-85.333h6.033c3.988 0 7.642 2.224 9.474 5.766l125.109 241.879c50.112 96.88 197.295 48.43 180.062-59.272l-14.507-90.688c-1.037-6.481 3.968-12.352 10.53-12.352h143.689c74.428 0 130.048-68.402 114.867-141.263l-64.034-307.371zM350.234 500.139v-292.211l81.506-54.336c15.77-10.513 34.295-16.119 53.248-16.119h219.831c45.474 0 84.706 31.902 93.982 76.42l64.034 307.366c6.899 33.12-18.381 64.211-52.211 64.211h-143.689c-45.943 0-80.986 41.097-73.728 86.464l14.511 90.688c5.743 35.901-43.319 52.050-60.023 19.757l-125.108-241.879c-12.824-24.792-38.407-40.361-66.32-40.361h-6.033zM286.234 585.47h-96c-5.891 0-10.667-4.776-10.667-10.667v-426.665c0-5.892 4.776-10.667 10.667-10.667h96v447.998z" />
<glyph unicode="&#xe940;" glyph-name="trash" d="M896 672.834c-0.853 0-2.133 0-3.413 0-225.707 22.613-450.987 31.147-674.134 8.533l-87.040-8.533c-17.92-1.707-33.707 11.093-35.413 29.013s11.093 33.28 28.587 34.987l87.040 8.533c226.988 23.040 456.961 14.080 687.361-8.533 17.493-1.707 30.293-17.493 28.587-34.987-1.28-16.64-15.36-29.013-31.573-29.013zM362.667 715.947c-1.707 0-3.413 0-5.547 0.427-17.067 2.987-29.013 19.627-26.027 36.693l9.387 55.893c6.827 40.96 16.213 97.707 115.627 97.707h111.787c99.84 0 109.227-58.88 115.627-98.133l9.387-55.467c2.987-17.493-8.96-34.133-26.027-36.693-17.493-2.987-34.133 8.96-36.693 26.027l-9.387 55.467c-5.973 37.12-7.253 44.373-52.48 44.373h-111.787c-45.227 0-46.080-5.973-52.48-43.947l-9.813-55.467c-2.56-15.787-16.213-26.88-31.573-26.88zM648.96-10.65h-273.919c-148.907 0-154.88 82.347-159.573 148.907l-27.733 429.654c-1.28 17.493 12.373 32.853 29.867 34.133 17.92 0.853 32.853-12.373 34.133-29.867l27.733-429.654c4.693-64.853 6.4-89.173 95.573-89.173h273.919c89.6 0 91.307 24.32 95.573 89.173l27.733 429.654c1.28 17.493 16.64 30.72 34.133 29.867 17.493-1.28 31.147-16.213 29.867-34.133l-27.733-429.654c-4.693-66.56-10.667-148.907-159.573-148.907zM582.827 224h-142.080c-17.493 0-32 14.507-32 32s14.507 32 32 32h142.080c17.493 0 32-14.507 32-32s-14.507-32-32-32zM618.667 394.667h-213.333c-17.493 0-32 14.507-32 32s14.507 32 32 32h213.333c17.493 0 32-14.507 32-32s-14.507-32-32-32z" />
<glyph unicode="&#xe941;" glyph-name="upload" d="M405.333 796.445c-157.094 0-284.445-127.35-284.445-284.445 0-78.37 31.647-149.278 82.942-200.764 13.86-13.909 13.819-36.42-0.092-50.283-13.911-13.858-36.423-13.815-50.283 0.094-64.033 64.269-103.678 153.015-103.678 250.953 0 196.368 159.188 355.555 355.555 355.555 128.721 0 241.421-68.421 303.787-170.714 146.876-2.729 265.101-122.645 265.101-270.175 0-83.925-38.302-158.938-98.249-208.444-15.138-12.501-37.551-10.368-50.052 4.774-12.506 15.142-10.368 37.551 4.77 50.057 44.292 36.578 72.422 91.793 72.422 153.613 0 109.966-89.148 199.111-199.113 199.111-21.598 0-42.129 11.252-53.41 30.4-49.515 84.019-140.834 140.266-245.257 140.266zM486.857 473.139c13.888 13.888 36.399 13.888 50.283 0l170.667-170.667c13.888-13.884 13.888-36.395 0-50.283-13.884-13.884-36.395-13.884-50.283 0l-109.969 109.969v-298.159c0-19.635-15.919-35.554-35.554-35.554s-35.554 15.919-35.554 35.554v298.159l-109.971-109.969c-13.885-13.884-36.398-13.884-50.283 0-13.885 13.888-13.885 36.399 0 50.283l170.665 170.667z" />
<glyph unicode="&#xe942;" glyph-name="user" d="M512 416c-135.253 0-245.333 110.080-245.333 245.333s110.080 245.333 245.333 245.333c135.253 0 245.333-110.080 245.333-245.333s-110.080-245.333-245.333-245.333zM512 842.667c-99.84 0-181.333-81.493-181.333-181.333s81.493-181.333 181.333-181.333c99.84 0 181.333 81.493 181.333 181.333s-81.493 181.333-181.333 181.333zM878.511-10.667c-17.493 0-32 14.507-32 32 0 147.2-150.182 266.667-334.502 266.667-184.322 0-334.508-119.467-334.508-266.667 0-17.493-14.507-32-32-32s-32 14.507-32 32c0 182.187 178.773 330.667 398.508 330.667 219.733 0 398.502-148.48 398.502-330.667 0-17.493-14.507-32-32-32z" />
<glyph unicode="&#xe943;" glyph-name="volumeOne" d="M684.8 81.493c-33.707 0-70.827 11.947-107.947 35.413l-124.587 78.080c-8.533 5.12-18.347 8.107-28.16 8.107h-61.44c-103.253 0-160 56.747-160 160v170.667c0 103.253 56.747 160 160 160h61.013c9.813 0 19.627 2.987 28.16 8.107l124.587 78.080c62.293 38.827 122.88 46.080 170.667 19.627s73.813-81.493 73.813-155.307v-391.253c0-73.387-26.453-128.853-73.813-155.307-18.773-11.093-40.107-16.213-62.293-16.213zM362.667 629.333c-67.413 0-96-28.587-96-96v-170.667c0-67.413 28.587-96 96-96h61.013c22.187 0 43.52-5.973 62.293-17.92l124.587-78.080c41.387-25.6 79.787-32.427 105.813-17.92s40.96 50.773 40.96 98.987v392.107c0 48.64-14.933 84.907-40.96 98.987-26.027 14.507-64.427 8.107-105.813-17.92l-124.587-78.080c-18.773-11.52-40.107-17.92-62.293-17.92h-61.013v0.427z" />
<glyph unicode="&#xe944;" glyph-name="volumeThree" d="M535.467 81.493c-33.707 0-70.827 11.947-107.947 35.413l-124.587 78.080c-8.533 5.12-18.347 8.107-28.16 8.107h-61.44c-103.253 0-160 56.747-160 160v170.667c0 103.253 56.747 160 160 160h61.013c9.813 0 19.627 2.987 28.16 8.107l124.587 78.080c62.293 38.827 122.88 46.080 170.667 19.627s73.813-81.493 73.813-155.307v-391.253c0-73.387-26.453-128.853-73.813-155.307-18.773-11.093-40.107-16.213-62.293-16.213zM213.333 629.333c-67.413 0-96-28.587-96-96v-170.667c0-67.413 28.587-96 96-96h61.013c22.187 0 43.52-5.973 62.293-17.92l124.587-78.080c40.96-25.6 79.787-32.427 105.813-17.92s40.96 50.773 40.96 98.987v392.107c0 48.64-14.933 84.907-40.96 98.987-26.027 14.507-64.853 8.107-105.813-17.92l-125.013-77.653c-18.347-11.947-40.107-17.92-61.867-17.92h-61.013zM768 245.333c-6.827 0-13.227 2.133-19.2 6.4-14.080 10.667-17.067 30.72-6.4 44.8 66.987 89.173 66.987 213.76 0 302.933-10.667 14.080-7.68 34.133 6.4 44.8s34.133 7.68 44.8-6.4c83.627-111.787 83.627-267.947 0-379.733-6.4-8.533-15.787-12.8-25.6-12.8zM846.080 138.667c-6.827 0-13.227 2.133-19.2 6.4-14.080 10.667-17.067 30.72-6.4 44.8 113.92 151.893 113.92 364.373 0 516.267-10.667 14.080-7.68 34.133 6.4 44.8s34.133 7.68 44.8-6.4c130.987-174.507 130.987-418.56 0-593.067-5.973-8.533-15.787-12.8-25.6-12.8z" />
<glyph unicode="&#xe945;" glyph-name="volumeTwo" d="M592.213 81.493c-33.707 0-70.827 11.947-107.947 35.413l-124.587 78.080c-8.533 5.12-18.347 8.107-28.16 8.107h-61.44c-103.253 0-160 56.747-160 160v170.667c0 103.253 56.747 160 160 160h61.013c9.813 0 19.627 2.987 28.16 8.107l124.587 78.080c62.293 38.827 122.88 46.080 170.667 19.627s73.813-81.493 73.813-155.307v-391.253c0-73.387-26.453-128.853-73.813-155.307-18.773-11.093-39.68-16.213-62.293-16.213zM270.080 629.333c-67.413 0-96-28.587-96-96v-170.667c0-67.413 28.587-96 96-96h61.013c22.187 0 43.52-5.973 62.293-17.92l124.587-78.080c41.387-25.6 79.787-32.427 105.813-17.92s40.96 50.773 40.96 98.987v392.107c0 48.64-14.933 84.907-40.96 98.987-26.027 14.507-64.427 8.107-105.813-17.92l-124.587-77.653c-18.773-11.947-40.107-17.92-62.293-17.92h-61.013zM824.747 245.333c-6.827 0-13.227 2.133-19.2 6.4-14.080 10.667-17.067 30.72-6.4 44.8 66.987 89.173 66.987 213.76 0 302.933-10.667 14.080-7.68 34.133 6.4 44.8s34.133 7.68 44.8-6.4c84.053-111.787 84.053-267.947 0-379.733-5.973-8.533-15.787-12.8-25.6-12.8z" />
<glyph unicode="&#xe946;" glyph-name="zap" d="M426.238-10.65c-8.533 0-15.36 1.707-20.48 3.84-17.067 6.4-46.080 27.307-46.080 93.44v275.2h-99.84c-57.173 0-77.653 26.88-84.907 42.667-7.253 16.213-13.653 49.067 23.893 92.16l322.988 366.932c43.52 49.493 78.933 46.080 96 39.68s46.080-27.307 46.080-93.44v-275.2h99.84c57.173 0 77.653-26.878 84.907-42.665 7.253-16.213 13.653-49.067-23.893-92.16l-322.987-366.933c-30.293-34.56-56.747-43.52-75.522-43.52zM594.347 843.109c-1.28-1.707-10.24-5.973-24.32-22.187l-322.988-366.932c-11.947-13.653-13.653-22.187-13.653-23.893 0.853-0.427 8.533-4.693 26.453-4.693h131.84c17.493 0 32-14.507 32-32v-307.2c0-21.333 3.842-30.72 5.548-33.28 1.28 1.707 10.24 5.973 24.32 22.187l322.987 366.933c11.947 13.653 13.653 22.187 13.653 23.893-0.853 0.427-8.533 4.693-26.453 4.693h-131.84c-17.493 0-32 14.507-32 32v307.198c0.427 21.333-3.84 30.293-5.547 33.28z" />
</font>
</defs>
</svg>
